<?xml version="1.0" encoding="utf-8"?>
<!-- Generator: Adobe Illustrator 17.1.0, SVG Export Plug-In . SVG Version: 6.00 Build 0)  -->
<!DOCTYPE svg PUBLIC "-//W3C//DTD SVG 1.1//EN" "http://www.w3.org/Graphics/SVG/1.1/DTD/svg11.dtd">
<svg version="1.1" id="Layer_1" xmlns="http://www.w3.org/2000/svg" xmlns:xlink="http://www.w3.org/1999/xlink" x="0px" y="0px"
	 viewBox="0 0 171.6 94.5" enable-background="new 0 0 171.6 94.5" xml:space="preserve">
<g>
	<g>
		<path fill-rule="evenodd" clip-rule="evenodd" fill="#FFFFFF" d="M10.3,90.6c30.8-19.8,65.7-5.5,83.1,4C69.3,85,34,82.8,10.3,90.6
			z"/>
		<path fill-rule="evenodd" clip-rule="evenodd" fill="#FFFFFF" d="M64.3,0c14.8,0,27.5,8.7,33.2,21.2H86
			c-5.1-6.3-13-10.3-21.8-10.3c-8.7,0-16.4,3.9-21.5,10c0.3-0.2,0.6-0.4,0.8-0.6c12.1-8.6,28.2,0.9,28.2,0.9S56.4,16.7,46.1,24
			c-10.4,7.3-8.7,21.8-8.7,21.8s-0.1-0.2-0.2-0.5c0,0.2,0.1,0.3,0.1,0.5c-2.5-1.8-5.5-3-8.8-3.3c-0.4-2.1-0.6-4.3-0.6-6.5
			C28,16.1,44.3,0,64.3,0L64.3,0z M17.8,82.2v-3.1c9.6-7.1,27.3-16.3,48.6-9.7c32.4,10.1,52.9,23.9,77.9,17.7
			c25-6.2,27.2-19.9,27.2-19.9s-4.4,19.3-29,23.5c-24.6,4.2-47.3-0.5-76.2-11.3C46.9,72.2,28,77.9,17.8,82.2L17.8,82.2z M17.8,75.9
			c1.8-1.2,3.6-2.3,5.3-3.2c-0.8-0.5-1.6-1.1-2.3-1.8c-1.3-1.3-2.3-2.7-3-4.1v6.7l0.2,0.2c0.3,0.3,0.7,0.6,1,0.9
			c-0.4-0.2-0.8-0.4-1.2-0.6V75.9L17.8,75.9z M17.8,44.8V33.4c2.4-0.8,4.9-1.3,7.5-1.4c-0.1,1.3-0.2,2.6-0.2,4
			c0,2.3,0.2,4.5,0.6,6.6C22.8,42.7,20.1,43.5,17.8,44.8z M17.8,33.4v11.4c-5.1,2.9-8.5,8.3-8.5,14.6c0,6.2,3.4,11.6,8.5,14.6v2
			c-2,1.4-4,2.9-5.7,4.1C4.8,75.4,0,67.3,0,58.1C0,46.6,7.4,36.9,17.8,33.4L17.8,33.4z M17.8,66.8c-3.2-6.3-2.1-13.4-2.1-13.4
			S10.2,66,17.8,73.5V66.8L17.8,66.8z M17.8,79.1c-5,3.7-7.8,6.8-7.8,6.8c0,0.1,2.9-1.6,7.8-3.7V79.1z"/>
		<path fill-rule="evenodd" clip-rule="evenodd" fill="#FFFFFF" d="M99.2,74.2c0,0,15.4,7.9,30,6.6c14.5-1.3,18.9-6.4,18.9-6.4
			s-5.3,9.8-19.3,10.4C114.8,85.3,99.2,74.5,99.2,74.2z"/>
		<rect x="87.3" y="24.2" fill-rule="evenodd" clip-rule="evenodd" fill="#FFFFFF" width="13" height="13"/>
		<rect x="138.9" y="60.2" fill-rule="evenodd" clip-rule="evenodd" fill="#FFFFFF" width="10" height="10"/>
		<rect x="103" y="12.3" fill-rule="evenodd" clip-rule="evenodd" fill="#FFFFFF" width="17.3" height="17.3"/>
		<rect x="153.2" y="42.3" fill-rule="evenodd" clip-rule="evenodd" fill="#FFFFFF" width="17.3" height="17.3"/>
		<rect x="122" y="31" fill-rule="evenodd" clip-rule="evenodd" fill="#FFFFFF" width="9.6" height="9.6"/>
		<rect x="128.4" y="50" fill-rule="evenodd" clip-rule="evenodd" fill="#FFFFFF" width="9.6" height="9.6"/>
		<rect x="108.1" y="50.9" fill-rule="evenodd" clip-rule="evenodd" fill="#FFFFFF" width="9.7" height="9.6"/>
		<rect x="141.9" y="31.3" fill-rule="evenodd" clip-rule="evenodd" fill="#FFFFFF" width="9.6" height="9.6"/>
	</g>
</g>
</svg>
