<?xml version="1.0" encoding="utf-8"?>
<!-- Generator: Adobe Illustrator 18.1.0, SVG Export Plug-In . SVG Version: 6.00 Build 0)  -->
<!DOCTYPE svg PUBLIC "-//W3C//DTD SVG 1.1//EN" "http://www.w3.org/Graphics/SVG/1.1/DTD/svg11.dtd">
<svg version="1.1" id="Layer_1" xmlns:sketch="http://www.bohemiancoding.com/sketch/ns"
	 xmlns="http://www.w3.org/2000/svg" xmlns:xlink="http://www.w3.org/1999/xlink" x="0px" y="0px" viewBox="44 138 700 517"
	 enable-background="new 44 138 700 517" xml:space="preserve">
<title>Map</title>
<desc>Created with Sketch.</desc>
<g id="Main" sketch:type="MSPage">
	<g id="Web-_x28_Month_x29_" transform="translate(-250.000000, -242.000000)" sketch:type="MSArtboardGroup">
		<g id="Content" sketch:type="MSLayerGroup">
			<g id="Header" sketch:type="MSShapeGroup">
				<g id="Map" transform="translate(250.000000, 242.000000)">
					<path id="Shape" fill="#2675AC" d="M353.1,546.2v39.8l13.6,13.6h16.7l12.5-13.6h8.4V610h14.6v29.3l8.4,8.4H446v7.3h-17.8h-8.4
						l-8.4-7.3h-7.3v-10.5l-6.3-6.3h-10.4l-18.8-16.7h-28.2l-21.9-23v-12.6l-18.8-18.8v-8.4l-20.9-20.9h-13.6v-15.7h-7.3l-14.6-15.7
						v-9.4l-8.4-8.4v-32.4v-26.2h6.3l3.1,4.2v-8.4l-15.7-14.7h-10.4v-8.4l-23-19.9h-6.3v-24.1h-9.4L166.2,340H139l-7.3-8.4h-6.3v7.3
						h5.2v4.2h-12.5l-8.4,8.4l-3.1-3.1V341l7.3-8.4v-4.2l-6.3,7.3l-8.4,7.3v8.4l-10.4,2.1H71.1l-4.2,5.2v-15.7H52.4v-11.5H44v-3.1
						l8.4-8.4h13.6v-11.5H44v-10.5l6.3-6.3h4.2l9.4,8.4v-8.4l-17.8-16.7v-6.3h8.4l14.6-14.7h27.1l7.3,7.3h52.2l17.8,18.8h9.4v-8.4
						l7.3-10.5h21.9l5.2,5.2h5.2l-5.2-6.3h7.3l10.4,12.6h16.7h25.1v11.5h14.6v-6.3l11.5,12.6V274h13.6l7.3,7.3H351l13.6-14.7
						l-5.2-6.3l10.4-9.4l11.5,9.4l-7.3,6.3l12.5,10.5l6.3-5.2l3.1,3.1l-5.2,5.2l8.4,8.4v9.4l-21.9,23l-10.4,9.4v18.8h8.4v9.4h14.6
						l18.8,18.8h16.7v10.5l10.4,11.5l7.3-7.3l-7.3-7.3v-7.3l12.5-13.6l-12.5-10.5l8.4-9.4l-6.3-6.3v-14.7h25.1l8.4,8.4h9.4v12.6
						l9.4,9.4l15.7-14.7v9.4l9.4,10.5v11.5h5.2h13.6v10.5l6.3,5.2v10.5h-10.4l-8.4,7.3H493l-19.8,19.9v6.3l18.8-18.8h11.5v12.6
						l6.3,6.3v8.4H493v6.3h-11.5l-6.3,6.3v10.5l-8.4,6.3l-6.3,7.3l-3.1,4.2l-5.2,1l-6.3,5.2v5.2l6.3,4.2v9.4l-21.9,18.8v11.5
						l5.2,10.5v13.6h-8.4l-8.4-9.4V542l-9.4-9.4h-19.8l6.3,6.3h-13.6l-7.3-6.3h-11.5L353.1,546.2z"/>
					<path id="Shape_1_" fill="#2675AC" d="M611.3,301.2v10.5L604,319v23h-11.5l-10.5-9.4h-7.3l-14.6-15.7l9.4-9.4l-8.4-7.3h-7.3
						v-19.9l13.6-13.6l-17.8-16.7v4.2h-6.3v-23l-18.8-19.9h-25.1l-7.3,7.3L466,193.4l7.3-7.3h25.1l6.3-6.3l-5.2-4.2H489l14.6-14.6
						h12.5l7.3-7.3h32.4l8.4,10.5v-13.6H582l3.1-4.2h21.9l8.4-8.4h17.8h25.1v8.4h18.8l6.3,10.5h-25.1v4.2h25.1v11.5L697,160h19.9
						l5.2-8.4h13.6l8.4,9.4l-6.3,5.2h-10.5l-21.9,20.9v13.6h6.3v7.3H698v17.8l-11.5,9.4l-6.3-5.2H675v10.5h18.8V252l-27.2,25.1
						h-17.8l-15.7,15.7h-13.6L611.3,301.2z"/>
				</g>
			</g>
		</g>
	</g>
</g>
</svg>
