<?xml version="1.0" encoding="UTF-8" standalone="no"?>
<svg width="26px" height="39px" viewBox="0 0 26 39" version="1.1" xmlns="http://www.w3.org/2000/svg" xmlns:xlink="http://www.w3.org/1999/xlink" xmlns:sketch="http://www.bohemiancoding.com/sketch/ns">
    <!-- Generator: Sketch 3.0.4 (8053) - http://www.bohemiancoding.com/sketch -->
    <title>Oval 2</title>
    <desc>Created with Sketch.</desc>
    <defs></defs>
    <g id="Page-1" stroke="none" stroke-width="1" fill="none" fill-rule="evenodd" sketch:type="MSPage">
        <path d="M25.8026726,15.2689659 C25.9323614,14.5321675 26,13.7739827 26,13 C26,5.82029825 20.1797017,0 13,0 C5.82029825,0 0,5.82029825 0,13 C0,13.9430032 0.100405801,14.8625555 0.291109936,15.7485492 C0.895441206,19.3223125 2.7576162,26.5996916 8.38769531,33.7197266 C11.3214522,37.4298789 12.4814453,38.6850586 13.4365234,38.7006836 C14.3916016,38.7163086 15.4213867,37.3027344 17.8774414,33.8413086 C20.5831614,30.0280185 24.8358054,23.5704429 25.8026723,15.2689681 Z M13,20 C16.8659932,20 20,16.8659932 20,13 C20,9.13400675 16.8659932,6 13,6 C9.13400675,6 6,9.13400675 6,13 C6,16.8659932 9.13400675,20 13,20 Z" id="Oval-2" fill="#B5DA9E" sketch:type="MSShapeGroup"></path>
    </g>
</svg>