<?xml version="1.0" encoding="utf-8"?>
<!-- Generator: Adobe Illustrator 18.1.0, SVG Export Plug-In . SVG Version: 6.00 Build 0)  -->
<!DOCTYPE svg PUBLIC "-//W3C//DTD SVG 1.1//EN" "http://www.w3.org/Graphics/SVG/1.1/DTD/svg11.dtd">
<svg version="1.1" id="Layer_1" xmlns="http://www.w3.org/2000/svg" xmlns:xlink="http://www.w3.org/1999/xlink" x="0px" y="0px"
	 viewBox="0.3 271.9 611.4 248" enable-background="new 0.3 271.9 611.4 248" xml:space="preserve">
<path fill="#F5F5F5" d="M527.3,425.1c-1.1,1.1-1.6,1.2,0.9,1.6c2.5,0.5,3.2,0.5,2.2,1.6c-1,1.2-1.8,2.6-0.9,2.8
	c0.9,0.2,3.5-0.6,3.8,0c0.3,0.6-0.6,0.7,2.3,1.2c2.9,0.5,3.5,1.5,4.1,2.1c0.6,0.6,2.3,2.5,1.2,2.5c-1.2,0-2.5,1.4-1.6,1.6
	c0.9,0.2,3.5-0.4,3.7,0c0.2,0.4,1.6,3.2,3,3.1c1.4-0.2,2.3-2.8,3-3.5c0.7-0.7,3.7-1.2,4,0.2c0.3,1.3,1.2,2.6,2.9,3.5s3.8,1.8,4,1
	c0.2-0.7-0.9-3.5-2.1-4c-1.2-0.5-3.2-2.9-3.2-4c0-1-1.8-1.3-2.6-2.1c-0.9-0.7-1.6-2.8-3.8-3.2c-2.2-0.5-2.8-1.2-5.1-2.3
	c-2.4-1.2-7.6-1.2-7.7-0.5c-0.2,0.7,0,0-1.8-0.6c-1.8-0.6-3,0-3.5-1C529.7,424.1,528.6,423.8,527.3,425.1z M517.4,407.9
	c-2.1,2.6-1.9,2.1-3.4,1.4c-1.4-0.6-3.8,1.3-3.4,2.1c0.4,0.7,3.7-0.2,4.4,1.2c0.7,1.3,0.7,1.4,2.2,1.2c1.5-0.3,2.9-2.3,2.5-3.4
	C519.3,409.4,517.4,407.9,517.4,407.9z M517,402.5c-0.6,0-2.5,3,0.2,2.9C519.7,405.3,519,402.7,517,402.5z M512.2,404.7
	c-0.5,0.2-1.8,2.8-0.2,2.8c1.6,0,4.4,0.4,3.8-0.3C515.2,406.5,513.8,404.1,512.2,404.7z M510.8,392c-1,0,0.2,1.6-1.3,2.6
	s-3.1,1.4-2.2,3.2c0.9,1.8,4,3,3.2,3.8c-0.7,0.7-2.9,2.2-3.2,3.5c-0.3,1.3,3.5-2.1,4.5-3.4c1-1.3,3-0.6,3.5-1.3l0.4-0.7
	c0,0-1.6-0.3-2.9-0.7c-1.3-0.5-2.9,1.2-2.2-1.2c0.7-2.3,2.9-1.9,2.5-3.7C512.7,392.5,511.3,392,510.8,392z M503.7,412.6
	c-0.1-1-2.3,0.3-2.5,1.3c-0.2,1,1.6,1.9-1.1,1.9c-2.8,0-2.9,2.2-3.5,2.6c-0.6,0.4-1.2,0.6-2.4,0.9c-1.2,0.3-1.4,1.4-1.8,2.2
	c-0.3,0.7-2.3-1.3-2.9-0.7c-0.6,0.6-0.2,3.4,0.9,5.7c1,2.3,3.7,3.8,4.4,3.8c0.7,0,2.2,0,3.2,0.3c1,0.3,4.4,0.6,4.2-0.7
	c-0.2-1.3-0.5-3.4,1-4.7c1.4-1.3,2.9-2.1,2.2-4c-0.7-1.9-2.2-3-1.2-3.9c1-0.9,2.2-1.2,2.2-1.9C506.4,414.6,504,417.4,503.7,412.6z
	 M523.7,420.3c-1.3-0.6-3.8,4.8-2.1,5.3C523.4,426,524.7,420.8,523.7,420.3z M508.8,422.4c-1,1-0.3,2.1,1.3,1.9
	c1.6-0.2,5-0.6,5.7-0.6c0.7,0,1.8-1.9,1.2-1.9s-4.7,0.7-5.1,0.9C511.4,422.8,508.8,422.4,508.8,422.4z M507.9,425.3
	c-0.9,0.3-0.7,1-1,2.5c-0.3,1.4-1.6,2.5-0.5,3.2c1.2,0.7,3.4-2.5,4-1.4c0.6,1-0.2,1.4,0.9,2.8c1,1.3,2.9,1.2,2.9,1.2
	s-0.2-3.5-1.8-4.4c-1.6-0.9-2.6-1.9-0.7-1.6c1.9,0.3,2.9-0.4,2.5-1.3c-0.5-0.9-3.2-0.5-4.1-0.3C509.2,426,507.9,425.3,507.9,425.3z
	 M514.3,441.7c0.2,1.6,3.2-0.9,3.2-0.9s2.4-0.3,2.4-1.3c0-1-2.4-2.3-3.2-1.2C515.8,439.4,514.2,440.6,514.3,441.7z M506.6,440.6
	c-0.3,1.3,2.2,1.9,2.3,0.5C509.1,439.6,506.9,439.4,506.6,440.6z M471.6,407.1c-1.2,0.2-1.2,2.3-0.6,3.1c0.6,0.7,1.8,0.3,2.5,2.9
	c0.7,2.6,2.2,5.3,2.8,6.3c0.6,1,3.1,2.5,4,3.2s2.2-0.3,1.6-1.2c-0.6-0.9-1.8-2.2-1.9-3.2c-0.2-1-0.9-2.6-2.1-4.4
	c-1.2-1.8-2.2-2.2-2.9-3.4C474.2,409.3,471.6,407.1,471.6,407.1z M465.9,414.8c-1.8,0.4,2.6,3.5,3.1,4c0.4,0.4,4.4,3.8,4.4,5.4
	s2.6,5.4,3.4,6c0.7,0.6,4.4,2.8,5,4c0.6,1.2,1.9,1.5,1.9-0.2c0-1.6,0.3-3.5,1-4.4c0.7-0.9,0.5-2.2-0.7-2.1c-1.2,0.2-2.2-1.9-4.1-3.2
	c-1.9-1.3-3.4-2.2-5.1-4.1c-1.8-1.9-4-3.1-5.1-4.1C468.3,415.1,466.6,414.6,465.9,414.8z M586,460c-2.6-0.6-0.9,0.5,0,1.8
	c0.9,1.3,2.6,2,2.9,0.6C589.1,461.6,588.7,460.6,586,460z M607.5,455.1c1.9,0.7,5.3-2.6,4-3C610.1,451.6,607.5,455.1,607.5,455.1z
	 M540.7,485c0.2,0.5,2.1,0.6,2.1,2.1c0,1.4,0,2.3,0.4,2.6c0.5,0.3,2.8,0,3.8,1.8s1.8,0.2,2.3-0.6c0.6-0.7,2.6,0.3,3.2,0.9
	c0.6,0.6,2.2-1.2,4.4-1.8c2.2-0.6,1.9-0.5,2.5-1.3c0.6-0.9,1-3.2,2.3-5c1.3-1.8,3.1-4.8,3.1-7.2c0-2.3-0.2-7.7-1.8-10.2
	c-1.6-2.5-4.7-5-4.5-6.3c0.2-1.3-2.5-1.3-3.8-2.3c-1.3-1-1.4-4.1-2.2-5.8c-0.7-1.8-2.2-2.9-3.7-4.5c-1.4-1.6-2.2-5.3-2.6-5
	c-0.4,0.3-1.8,4.5-0.7,5.9s-0.4,3.9-1.2,5.7c-0.7,1.8-2.5-0.3-4-1.2c-1.4-0.9-3.5-1.4-4.5-2.5s1.8-3.8,1-4.8c-0.7-1-4.7-0.2-5.1-0.2
	c-0.4,0-1.3-1.4-2.2-1.4c-0.9,0-0.7,2.9-0.7,2.9s-0.9-1-2.2-2.3c-1.3-1.3,0.2,0.9-1.2,2.2c-1.3,1.3-0.9,0.9-1.5,2.3
	c-0.6,1.4-1.9,0.9-3.2-0.6c-1.3-1.4-2.1-0.4-2.9,0c-0.9,0.4-1.6,2.9-2.1,3.5c-0.5,0.6-3.5,1.3-4.2,2.1s-1,3.1-1,3.7
	c0,0.6-3.1,0.3-4.1,1c-1,0.7-2.6,0.3-3.7,0.3s-4.5,2.8-5.7,3.5c-1.1,0.7-1.1,3.4-0.6,4.1c0.6,0.7,1.8,2.5,1,2.8
	c-0.7,0.3-1.2,2.3,0.6,4.1c1.8,1.8,1.2,2.2,1.3,3.1c0.2,0.9,0.9,1.2,2.1,2.6c1.2,1.4-2.1,2.6-2.5,3.5c-0.5,0.9,1,2.2,1.9,2.9
	c0.9,0.7,3,0.3,4.4-0.2c1.3-0.5,2.8-1.6,3.7-1.8c0.9-0.2,5-0.3,5-0.3s1.4-2.2,2.5-3.4c1-1.2,4.2-0.2,4.2-0.2s1.3-0.9,4.8-1.6
	s2.1,0.7,3.4,1.2c1.3,0.4,3.1,0.7,4.1,1.4c1,0.7,0,2.5-0.2,3.2c-0.2,0.7,2.5,0.5,2.6-0.3c0.2-0.7,0.9-1.4,2.3-2.3
	c1.4-0.9,0.3,1.3,0.9,2.6c0.6,1.3,1.4-1.8,1.4-0.3C540.2,484.1,540.6,484.6,540.7,485z M550.8,495.1c-1.6,1.6,1.6,1.6,1.2,3.2
	c-0.5,1.6,2.2,1,2.9,0.7c0.7-0.3,2.5-3.7,2.2-4.5c-0.3-0.9-3.2,1.4-3.9,1.3C552.5,495.7,550.8,495.1,550.8,495.1z M599.6,493.9
	c-0.2,0.7-1.4,0.9-2.3,1.6c-0.9,0.7,0,1-2.5,2.5c-2.5,1.4-5.6,3-6.1,4.4c-0.6,1.3,0.6,2.1,2.9,2.2c2.3,0.2,1.8,0.6,3.4-1.2
	c1.6-1.8,3.1-2.8,5-4.2c1.9-1.4,1.9-3.7,1.9-3.7S599.7,493.5,599.6,493.9z M600.8,484.6c-0.6,0.3,0,1.9,0.6,2.5
	c0.6,0.6,0.9,2.6,0.7,3.2c-0.2,0.6-2.6,1.3-1.4,2.1c1.2,0.7,3.4,0,3.1,0.9c-0.3,0.9-1.4,2.1-0.2,2.3c1.3,0.3,1.8-1,2.3-2.1
	c0.6-1,1-1.9,2.1-2.5c1-0.6,0-1.9-0.6-1.9s-0.9,0.7-2.2,0c-1.3-0.7-1-0.5-1.9-1.9C602.4,485.7,602.2,483.8,600.8,484.6z
	 M510.7,381.2c-2.2,0.3-3.5,5-1.8,4.8C510.7,385.9,512.6,380.9,510.7,381.2z M542.8,352.5c-1.1,0.6-0.5,3.2-1.3,5
	c-0.9,1.8-1.6,3.4-2.2,3.4s-3.7,1.2-4.5,2.1c-0.9,0.9-5.1-0.7-5.7,0c-0.6,0.7-1.8,1.6-2.5,2.2c-0.7,0.6-2.8,0.2-2.3,1.9
	s1.4,3.4,2.3,3.4s2.1-0.6,2.1-2.2c0-1.6,2.1,0,3-0.2c1-0.2,1.6-1.2,2.1-2.3c0.5-1.2-0.6,0.6,1.2,1s2.3-0.7,2.3-1.2
	c0-0.4,3.2-1.2,3.8-1.6c0.6-0.4,2.9-1.2,3.1-1.8c0.2-0.6,0-4,0.7-4.2c0.7-0.3,1.8-0.3,0.6-2.3C544.3,353.5,544.3,351.6,542.8,352.5z
	 M546.2,346.8c-1.1,0.3-1.4,1.8-1.4,2.2c0,0.4-4.1,1.3-2.8,2.5c1.3,1.2,2.6,0.3,4.7,0.2c2.1-0.2,4-0.7,4-0.7s3.1,0.2,2.6-1.3
	c-0.5-1.4-3.7-1.6-4.2-1.4C548.4,348.2,547.3,346.5,546.2,346.8z M399.3,300.4c-0.7-0.2-1.2-1.3,0.7-2.3c1.9-1,4-2.3,6.1-2.6
	c2.2-0.3,7.2-0.5,8.9,0c1.8,0.4,4.4-1.9,5.1-2.9c0.7-1-2.3-1.8-3.2-0.6c-0.9,1.2-5.1,0.9-6,0.6c-0.9-0.3-7.9,1.2-9.3,1.2
	s-2.1,1.8-4.1,2.6c-2.1,0.9-4.8,2.2-5.9,2.6c-1,0.4-2.1,2.2-1.1,2.5c0.9,0.3,2.8,0.5,4.4,1.3s3.9,1.2,5,0.2
	C400.7,302,400,300.5,399.3,300.4z M290,324.4c-1.2,0.4-0.7,1.9-0.2,2.6c0.6,0.7,1.6,2.3,3.1,2.9c1.4,0.6,4.5,1.2,3.4,1.8
	c-1.2,0.6-3.2,2.2-3.5,3c-0.3,0.9,2.5,1.8,2.5,1.8s-0.9,1-0.2,1.3c0.7,0.3,1.2-1,2.3-1c1.2,0,3.5,0.7,4.7,0.7c1.2,0,3-1.6,2.9-2.6
	c-0.2-1-1.6-2.6-2.9-3.2c-1.3-0.6-2.8-3.2-3.7-3.8c-0.9-0.6,0.9-2.1-0.2-3c-1-1-1.8-0.9-2.9-1.6c-1.2-0.7-2.2,0.2-2.9,1
	C291.7,325.2,290.8,324.1,290,324.4z M288.3,328.8c-1.3,0.2-1.4,1.6-2.3,1.6c-0.9,0-1.9,0.3-1.6,1.3c0.3,1,0.9,1.8,0,2.2
	c-0.9,0.4,0.2,2.2,1.3,2.3c1.1,0.1,2.5-0.7,3.5-1.2c1-0.5,2.5-1.3,2.5-2.6c0-1.3-0.3-2.5-0.9-3.1
	C290.2,328.8,289.2,328.7,288.3,328.8z M323.2,358.3c-0.5,0.3,0.9,1.3,1.6,1.6c0.7,0.3,1.3,1.2,1.9,1.3c0.6,0.2,2.5,0,1.9-1.4
	c-0.6-1.4-1.9-1.4-2.3-1.4C325.9,358.3,324,357.9,323.2,358.3z M305.9,355.8c-0.4,0.5,1.2,0.7,1.4,0.2
	C307.6,355.4,306.9,354.2,305.9,355.8z M317,353.5c-1.4,0-2.1,2.2-1.2,2.9c0.9,0.7,1.8,0.6,2.5-0.5C319,354.9,317.7,353.5,317,353.5
	z M439.9,407.9c-0.9,0.4-1.8,5.4,0,6c1.8,0.6,2.8-2.3,2.2-3C441.5,410.1,441.2,407.4,439.9,407.9z M386.9,445.5
	c-1.8-0.5-2.1,1.9-3.5,3.5c-1.4,1.6-3.1,2.9-3.7,2.8c-0.6-0.2-3.8,1-2.8,3.2c1,2.2,0.9,4.4-0.2,5.4s0.9,4,0.6,5.6
	c-0.3,1.6,0.4,2.6,2.5,2.6c2.1,0,2.8-0.7,3.7-2.6c0.9-1.9,1-3.8,1.9-5.4c0.9-1.6,1.6-5,2.1-5.8c0.4-0.9,1.3-3.7,1.2-5.3
	C388.5,447.8,387.9,445.7,386.9,445.5z M174.2,392.5c0,0,1.6,0.3,2.6,0.3s1.6,0.6,2.5,1c0.9,0.5,2.5-0.6,3.1-0.6
	c0.6,0,1.3,1.8,1.4-0.2c0.2-1.9-1.8-2.8-2.9-3.1c-1.2-0.3-2.5,0-3.4,0.2C176.7,390.3,174.2,392.5,174.2,392.5z M187.5,391.8
	c-1.3,0.2-1,2.8,0.6,2.4C189.7,393.7,188.8,391.6,187.5,391.8z M168.2,393.5c-1.3,0.2-1,2.8,0.6,2.4
	C170.4,395.3,169.5,393.2,168.2,393.5z M167.5,381.4c-1.3,0.2-1,1.8,0.6,1.4C169.7,382.5,168.8,381.2,167.5,381.4z M156.8,385.5
	c-0.2,1.4,1.3,1,3.1,1s4.8-0.3,5.4,0.4c0.6,0.7,3.2,1.9,4,2.5c0.7,0.6,3.1,0.7,3.2,0.2c0.2-0.6-1.6-2.2-2.6-2.1
	c-1,0.2-3.2-1-4.4-2.1c-1.2-1-3.4-1-4.2-1C160.3,384.4,156.8,385.5,156.8,385.5z M176.8,291c1.2,0.8,1.8,0.3,3.3,0.6
	c1.4,0.3,2.6,2.4,3.4,2.7c0.8,0.3,1.8,0,2.3-0.6c0.5-0.6,1.2-2.6,1.2-2.6s0,1.9,1.2,2.3c1.2,0.4,4.1-0.3,4.9-0.2
	c0.8,0.1,5.3,0.7,6.6,1.3c1.3,0.6,4.4,1,5.3,2.2c0.9,1.3,1,5.6,1.4,6.1c0.5,0.5,2.1-1.6,2.5-2.1c0.4-0.5,2.4-0.2,3.1,0.5
	c0.7,0.7,2.2,2.3,2.1,3c-0.1,0.7-0.4,1.8-1,1.4c-0.6-0.4-1.5-0.3-1.2-1.1c0.4-0.8,0.6-2.4-0.2-2.4h-1.4c0,0-1.4-0.4-2.4,1.1
	c-1,1.4-0.2,2.9,0.5,2.9c0.7,0,2.2,0,2.2,0.4c0,0.4-1.7,1.6-1.6,2.2c0.1,0.7,1.4,3,1.8,3.5c0.4,0.5,2.4,1,3,1.1
	c0.6,0.1-1.4,0.2-0.9,0.9c0.5,0.7,1.3,2.3,2.3,2.7c1.1,0.4,4.1,2.1,4.5,2.9s2.7-0.6,3.2-0.7c0.5-0.1,0.4,2.1,1.8,2.1s1.8-0.2,3-1.1
	c1.2-0.9,0.9-2.1,1-2.9s0-1.6,1.3-1.3c1.3,0.3,1.9-0.2,1.8-1.2c-0.1-1-1.2-2.1,0.9-2.4c2.1-0.3,3.1-1.6,4.4-1.6s4.8,0.5,5.2,0
	c0.4-0.5,2.1-2.7,3.1-2.8c1.1-0.1,3.9-0.3,6.4-0.7c2.5-0.4,5.3-1.8,6.1-1.8c0.9,0.1,3,0.1,2.3-0.5s-1.7-1.9-3.1-1.9
	c-1.4,0-0.1-2.1,0.3-2.1s2.3,0.3,2.2,1.3s0.6,2.2,2.5,1.8c1.9-0.4,1.7-1.8,1.3-2.2c-0.4-0.4-0.7-1.4-1.1-2.1
	c-0.4-0.7-0.3-1.6,1.8-1.8c2.1-0.2,4.9,0.8,4.8-0.8c-0.1-1.6,0-3.2,0.6-4.1c0.6-0.9,1.8-1.4,1.2-1.8c-0.7-0.3-1.6,0.4-2.2-1.1
	c-0.7-1.4,0.6-2.5,1.4-3.1c0.8-0.6,4.9-4.4,7.1-5c2.2-0.6,3.8-2.8,2.2-3.3c-1.5-0.5-4.7-1.4-6.7,0.2c-2.1,1.6-3.2,3-5.6,2.5
	c-2.3-0.5-2.1,0.2-2.1-2.5c-0.1-2.7-2.6-7.6-4.7-7.3l-2.1,0.3c0,0-35.8-0.2-37,1c-1.2,1.2-2.2,4.1-3.3,3.3c-1.1-0.8-1.3-2.7-2.6-1.9
	s-0.1,2.7-1.3,4.1c-1.2,1.4-4.5,1.2-5.4,0.7c-1-0.5-1.9-0.9-5.8-0.7c-3.9,0.2-8.2,1.4-7.3,2.5c0.9,1.2-1.8,1.8-2.4,1.3
	c-0.7-0.6-3.8,0.7-3.6,1.8c0.2,1.2-0.5,2.5-2.1,2.2c-1.7-0.3-2.8,0.7-2.9,1.7c-0.1,1-3.8,1.7-4.1,1.7
	C179.8,289.9,175.1,289.8,176.8,291z M262.4,310.2c-0.4,0.7-1.2,0.7-0.4,2.1c0.8,1.4,1.4,2.1,2.1,2.1c0.7-0.1,3-0.2,3.3,0.6
	c0.3,0.8,1.1,1.4,2.7,1s3-0.8,3.4-1.4c0.4-0.6,3-0.7,3-0.7s2.1-1.7,1.4-2.3c-0.8-0.7-2.6-1.2-3.5-1.3c-0.9-0.1-1.8,0.7-3.7,0.7
	c-1.9,0-3.2,0.8-4,0C265.9,310.1,262.6,309.7,262.4,310.2z M137.6,290c-1.2-0.3-3.3-0.7-3.3-1c0-0.3-0.6,1.4,0.5,1.8
	c1.1,0.5,2.8,1.4,4.1,1.8c1.3,0.5,3.7,0.6,4.5,1.5c0.8,1,3.4,1.8,3.4,1.8l3.1,0.3c0,0,2.1-0.5,4.4-0.3c2.2,0.2,5.6,0.5,7.4,0.4
	c1.8-0.1,2.1-0.7,2.3-1.1c0.2-0.4-3.4-1.2-4.3-1.1c-0.9,0.1-5.9,0.1-7.3,0s-3.3-0.1-4.5,0c-1.2,0.1-2.1-0.8-2.9-1.3
	c-0.9-0.5-2.8-2.1-4-2.2C139.8,290.6,140,290.6,137.6,290z M136.8,294.9c-0.4,1,3.9,1.6,3.4,0.4
	C139.7,294.2,137.3,293.8,136.8,294.9z M137.1,299c0.1,0.3,0.9,0.8,2.1,0.6c1.3-0.2,3.1-0.4,4-0.5s1.1-1.6,0.1-1.7
	c-1-0.1-1.8-1-2.6-0.7C139.8,297.1,136.8,298.4,137.1,299z M126.1,298.1c-0.7,0.4-0.3,1.8,0.8,1.9c1.1,0.1,2.9-0.7,3.1-0.1
	c0.2,0.6,0.9,3.2,2.6,2.3s1.7-1.7,2.1-1.8s-0.1-2.2-0.9-2.7c-0.8-0.5-3.3-0.2-4,0.1C129.2,298.3,127.2,297.5,126.1,298.1z
	 M122.5,293c-0.7,0.6,0,2.6-0.3,2.8s0.1,1.1,0.9,0.9c0.8-0.2,1.2-2.1,1.8-2.1s3.6-0.7,4.1,0.4c0.5,1.1,0.5,0.6,1.8,0.7
	c1.4,0.1,2.4-1.4,2.5-1.8c0.1-0.5-0.7-1.4-2.5-1.3S123.3,292.3,122.5,293z M120.6,288.5c-0.2,0.7,0.8,1.3,2,1.3
	c1.2,0,3.7-0.6,3.9-0.1c0.2,0.5-0.1,0.9,1.3,1.1c1.4,0.2,1.9,0.4,2.7,0.4s0.5-1.3-0.2-2.1c-0.7-0.9-0.5-0.8-2.2-1.3
	s-3.5-0.5-4.7-0.4C122.1,287.5,120.9,287.2,120.6,288.5z M107.4,289.8c-1.1,0.4-0.9,1.4-0.1,1.4s2.7-0.7,3.3-0.2
	c0.6,0.5,2.1,0.1,1.9-0.4c-0.1-0.5,0.6-2.4-0.6-2.5C110.8,288,109.2,289.2,107.4,289.8z M90.9,293.8c-0.2,0.6,0.9,0.6,2.1,0.6
	c1.3,0,3.3,0,3.9-0.3s3.5-1,3.4-0.1c-0.1,0.9,1.2,2.2,1.8,2.1c0.7-0.2,2.1-1.4,2.7-1c0.7,0.5,0.8,1.7,1.4,1.9c0.7,0.3,2.5,0.3,3.4,0
	c0.9-0.3,3.3-0.3,4.4-0.1c1.1,0.2,4.2,0.8,4.5,0.2c0.3-0.6,1.2-0.7,1.3-1.3c0.1-0.6,0.6-2.4,0.6-2.4s-0.6-1.1-1.5-0.6
	c-1,0.5-1.3,0.8-2.1,0.6c-0.9-0.2-0.9-1.8-2.4-1.4c-1.6,0.3-1.8,1.2-2.3,1.6c-0.5,0.4-1.6,0.7-1.9,0.5c-0.4-0.2-2.6-1.4-2.6-1.4
	s-4.7-0.2-4.9-0.8c-0.2-0.6-1-1.6-3.1-1.4c-2.1,0.2-5.8,1.4-6.4,1.4c-0.6,0,0.7,1.2-0.1,1.2C92.1,293,91.2,292.9,90.9,293.8z
	 M163.5,317.5c-1.5,0.5-0.1,1.5,0.9,1.2C165.3,318.3,164.9,317.1,163.5,317.5z M157.8,316.7c-0.4,0.4,1.8,1.1,2.1,0.5
	C160.4,316.6,158.8,315.6,157.8,316.7z M17.2,310c-2.1,0.2-4.7,1.2-4.7,1.2s0.7,1.3,2.1,2.2c1.3,0.9,4.5,0.9,4.5,0.9
	s2.2,0.2,3.1-0.6s1.9-0.6,2.5-0.5c0.6,0.2-0.5,2.1-2.1,1.9c-1.6-0.2-3.5,0.2-4.8,1.2c-1.3,1-2.5,1.2-1.9,2.3
	c0.6,1.2,2.8,2.6,2.9,3.4c0.2,0.7,2.6-0.5,2.9-1.2c0.3-0.7,1.8-0.7,1.3,0.9c-0.4,1.6,1.4,1.9,1.4,1.9s0.9-1.4,1.3-1.2
	c0.4,0.3,1.9,1.6,1.9,1.6s1.9-1.3,2.5-0.5c0.6,0.9-0.9,1.6-1.8,2.1c-0.9,0.4-4.1,1.6-4.8,2.1c-0.7,0.4-3.5,1.8-4.2,1.8
	c-0.7,0-1,1.8,0.3,1.6c1.3-0.2,5-1.4,6-1.9c1-0.5,0.6,0.6,3.2-0.7c2.6-1.3,4.2-2.5,5-2.3c0.7,0.2,0.9,1.2,2.1,1.4
	c1.2,0.3,2.2-0.9,2.9-1.3c0.7-0.4,1.3-2.2,0.6-2.1c-0.7,0.2-2.6,0-2.6,0s2.1-1.2,2.1-1.9s0.3-1.9,1.4-2.3c1.2-0.5,1.2-0.2,0.5,1.6
	c-0.7,1.8,1.4,1,2.3,0.3c0.9-0.7,1.4-0.2,3-1.2c1.6-1,1.6-1.6,2.5-1.6c0.9,0,2.5,1.6,3.4,1c0.9-0.6,3.4,0.7,4.8,0.7
	c1.4,0,6.1,1.9,7,1.9c0.9,0,3.5,1,3.7,2.9c0.2,1.9,1,1.8,1.9,1.8s2.9,0.7,2.9,1.4s-0.6,3.7,0.9,4.4s2.8,1.9,3.4,1.6
	c0.6-0.3,0-2.6-0.7-2.9c-0.7-0.3-0.3-1.3-0.6-1.9c-0.3-0.6,0.9-0.6,1.3,0.5c0.5,1,1.6,2.9,2.3,2.9c0.7,0,2.3,1.8,1.9,2.8
	c-0.4,1,0.5,2.5,1.8,2.5s2.9,2.1,3.5,2.2s1.3,0.9,1.3,1.3s0.7,2.9,0.7,4s-0.5,5.1-0.6,6.7c-0.2,1.6,1.2,4.4,2.6,5.8
	c1.4,1.4,2.8,4.2,3.7,4.8c0.9,0.6,1.4,2.2,2.8,2.1c1.3-0.2,2.2,0.9,3.4,2.9c1.2,2.1,2.3,5.4,3.2,5.7c0.9,0.3,2.3,1.3,1.6,2.1
	c-0.7,0.7-1.9,2.3-0.6,2.3c1.3,0,1.8-0.7,2.8,0.6c1,1.3,2.3,2.1,2.2,2.9c-0.2,0.9,1.2,1.2,1.8,1.3c0.6,0.2,1.9,2.8,3.2,1.6
	c1.3-1.2-1.8-2.9-2.6-3.7c-0.9-0.7,0-2.3-2.1-3.9c-2.1-1.6-1.8-2.8-3.2-4c-1.4-1.2-2.6-2.2-1.2-3.2c1.4-1,1.6,1,2.2,2.3
	c0.6,1.3,3.7,4,5,5.1c1.3,1.2,3.7,5.3,4.4,5.3s2.8,2.3,2.8,2.3s1.2,1.9,0.7,2.5c-0.4,0.6,0.6,2.8,1.6,3.4c1,0.6,5.1,2.5,5.7,2.8
	c0.6,0.3,1.8,2.5,3.4,2.5s2.8,0.2,3.2,0.6c0.4,0.5,1.8,2.2,2.6,1.2s1-1.4,2.3-1.4s1.9,1,2.6,1.8c0.7,0.7,2.8,2.6,3.8,2.5
	c1-0.2,2.3,1.2,3.1,0.7c0.7-0.4,1.9,0.3,2.5,0.6c0.6,0.3,2.6,1.3,2.5,3c-0.2,1.8,1.2,2.2,2.1,2.6c0.9,0.4,2.1,1.4,2.8,2.2
	c0.7,0.7,2.3,0.9,2.8,1.3c0.4,0.4,0.7,1.3,2.1,0.6c1.3-0.7,1-2.1,1-2.1s1.4-0.3,2.2,0.3c0.7,0.6,1.2,2.5,1.6,2.8
	c0.5,0.3,1.3,2.5,0.7,4.1c-0.6,1.6-0.5,3.2-1,3.2s-1.3,1.9-2.2,2.3c-0.9,0.4-3.2,2.5-3.1,3.2c0.2,0.7,1.4,2.9,1.2,3.9
	c-0.3,1-2.2,2.2-1.8,3.8c0.5,1.6,3.5,2.1,3.7,3.5c0.2,1.4,2.3,4.7,2.6,6.1c0.3,1.4,2.8,3,2.8,5.1c0,2.1,3.5,3.4,4.2,3.5
	s2.1,1.4,3.1,1.9c1,0.4,1.9,1.3,2.6,2.5c0.7,1.2,0.6,2.9,0.6,3.4s-0.4,5-0.9,7.6c-0.4,2.6,0.6,4.7-0.3,5.4c-0.9,0.7-2.1,1.5-1.2,2.3
	c0.9,0.9-1,1.5-1,1.9c0,0.5,1.2,2.8,0.6,3.8c-0.6,1-1,2.5-1.4,3.4c-0.4,0.9-1.4,1.8-1.2,3.1c0.3,1.3-1.2,0.9-1.2,2.2
	c0,1.3,1.3,0.7,1,2.3c-0.3,1.6-1,2.1-1,3.2c0,1.2,0.7,2.8,0.7,3.2c0,0.5-0.7,1.9-1.8,3.1c-1,1.2-1.8,1.9-1.6,2.6
	c0.2,0.7,1.2,1.6,1,2.1c-0.2,0.5-1.4,1.9-1.3,2.9c0.2,1,1.4,0.6,1.8,1.3s-1.8,1.3-0.9,2.1c0.9,0.7,2.1,0.6,1.8,2.3s1.6,2.2,2.1,2.6
	c0.5,0.4,1.3,1.4,2.1,1.4c0.7,0,1.3-0.5,1.6-2.1s2.3-0.3,0.9,0.9c-1.4,1.2-2.2,1.8-1.8,1.8c0.5,0,2.6,1.2,3.8,1.2
	c1.2,0,3.5-0.6,4-0.7c0.5-0.2,3.7-0.6,4-1c0.3-0.5-2.5-0.3-3.8-0.7c-1.3-0.4-3.7-2.6-3.9-3.5c-0.3-0.9-0.3-2.6,0.7-3.2
	c1-0.6,3.5-2.6,4.1-3.1c0.6-0.4,1.4-2.5,1-2.8c-0.4-0.3-2.6,0-2.9-0.4c-0.3-0.5-0.3-1,1.2-2.1c1.4-1,2.2-2.5,2.8-2.9
	c0.6-0.5,1.8-1.3,2.2-2.3c0.5-1-0.5-0.4-1.3-0.4c-0.9,0-1.3-1.6-1.3-2.4c0-0.7,2.2,0.3,3.8,0.6c1.6,0.3,0.9-0.7,0.7-1.6
	c-0.2-0.9,0.3-2.3,1.2-1.9c0.9,0.4,5.4-0.2,6-0.3c0.6-0.2,2.2-2.8,2.8-3.5s0.7-1.4,0-1.9c-0.7-0.4-1.6-2.1-1.9-2.5
	c-0.3-0.5-0.5-3.1-0.2-3.8c0.3-0.7,0,4.2,2.1,4.8c2.1,0.6,3.2,0.9,5.1-0.9c1.9-1.8,3.4-2.9,3.5-4.1c0.2-1.2,0.6-2.3,1.3-2.8
	c0.7-0.4,1.2,1.2,2.1-0.7c0.9-1.9,1.8-1.8,2.6-3.4c0.9-1.6-1.4-3.7,0.3-4.8c1.8-1.2,4.8-2.6,4.8-2.6s0.9-0.5,2.6-0.9
	c1.8-0.5,3.7-0.2,4.2-1c0.6-0.9,1.2-2.8,2.1-3.8c0.9-1,1.9-2.6,1.4-3.4c-0.5-0.7,1.2-3.9,1-4.8c-0.2-0.9-1.4-2.9,0.7-4.7
	c2.2-1.8,4.5-4.4,4.7-5.1c0.2-0.7,1.9-3.8,1.8-5.3c-0.2-1.4-1.8-3.2-2.8-3.7s-3.2-0.6-4.1-1.8c-0.9-1.2-3.4-2.3-4.2-2.1
	c-0.9,0.3-2.3,0.6-3.5-0.2c-1.2-0.7-3-1.6-3.8-2.2c-0.7-0.6-2.6-1-3.5-1c-0.9,0-0.7-0.6-2.1,1.2c-1.3,1.8,0,2.3-2.3,2.1
	c-2.3-0.3,0.3-0.4,1.6-2.2c1.3-1.8-0.2-2.8-1.6-2.3c-1.4,0.4-0.4,1.3-2.8,1.8c-2.3,0.5-2.3-1-0.9-1.3c1.4-0.3,4.1-1.6,4.1-2.2
	c0-0.6-0.3-2.2-1.4-2.2c-1.2,0-0.9-1.4-2.6-3.4c-1.8-1.9-4-3.1-5.7-2.8c-1.8,0.3-3,0.7-3.9-0.9c-0.9-1.6-1.9-1.9-2.5-2.8
	c-0.6-0.9-2.1,0-2.5-0.4l-0.4-0.5c0,0-1.9,0.5-0.9-0.9c1-1.3,1.4-3.8,1-3.7c-0.5,0.2-1.2,2.2-1.9,2.1c-0.7-0.2-0.2-0.5-1.6-1.3
	s-3.8-0.2-3.8,0.6c0,0.7-0.7,1.3-0.7,1.3s-0.5-0.4-0.9-1.3c-0.5-0.9-2.5-1-3.5-0.2c-1,0.9-1.6-2.2-2.3-2.2s-2.2,0.7-2.9,2.1
	c-0.7,1.3-0.4,3.2-1,3.1c-0.6-0.2-0.7-2.6-0.6-3.5c0.2-0.9,1.8-2.3,0.6-2.6c-1.2-0.3-2.9,1.4-3.7,1.6c-0.7,0.2-2.2,1.2-3.1,2.3
	c-0.9,1.2-1.3,1.9-2.2,2.3c-0.9,0.5-2.2,0-1.9-0.4c0.3-0.5-2.5-2.1-2.9-1.4c-0.4,0.6-1.8,1-3.1,1.6c-1.3,0.6-2.5-0.7-2.8-1.3
	c-0.3-0.6-0.9-0.7-1-2.6c-0.2-1.9,0.3-3.9,0.7-5.1c0.5-1.2-2.2-3.5-3.2-3.4c-1,0.2-2.1,1.2-3.1,1c-1-0.2-0.6-0.4-2.2-0.4
	c-1.6,0-0.3-0.3,0-1.6c0.3-1.3-0.6-3.1,1-4.2c1.6-1.2,1-4,0-4.1c-1-0.2-2.9,0.4-4.2,0.3c-1.3-0.2-2.3,1-1.9,2.3
	c0.5,1.3-0.7,2.2-1.2,2.1c-0.5-0.2-1-0.9-2.6,0.3c-1.6,1.2-2.2,0.7-3.8-0.6c-1.6-1.3-3.4-2.6-3.7-4.7c-0.3-2.1-0.4-4.1,0.2-5.3
	c0.6-1.2,0.6-3.2-0.3-3.5c-0.9-0.3,1-1.8,2.1-2.1c1-0.3,2.6-1.6,2.9-2.2c0.3-0.6,1.8-0.4,3.4-0.4c1.6,0,1.9,0,3.5,0.9
	c1.6,0.9,1.9-0.5,1.9-0.9c0-0.5,0.6-1.3,2.3-1.2c1.8,0.2,4.2-0.6,4.7-0.2c0.4,0.5,1.3,2.2,2.2,1.6c0.9-0.6,1.2-1.6,1.4,0.2
	c0.3,1.8,1,4.4,2.3,4.8c1.3,0.5,0.6,2.2,1.9,2.3c1.3,0.2,1.9-2.8,1.4-3.8c-0.5-1-1.3-4.1-2.1-4.8c-0.7-0.7-0.7-2.6,0.7-3.2
	c1.4-0.6,5-3.5,6-4.4c1-0.9,3.8-1.6,2.9-2.8c-0.9-1.2-1.2-1.9-1.2-2.8c0-0.9,0.9-0.6,1.3,0c0.4,0.6,2.2-0.9,1.8-1.6
	s-0.3-1.8,0.7-1.6s1.3-0.7,0.9-1.3c-0.5-0.6,1-1.3,2.1-1c1,0.3,3.7-0.2,4.1-0.7c0.4-0.6-0.9-1.2-0.9-2.3c0-1.2,1.8-2.2,2.8-2.3
	s2.3,0,2.5-0.4c0.2-0.5,1.6-1.6,1.8-0.6c0.2,1,0,2.8,1.2,2.8c1.2,0,2.6-1.3,3.1-1.4c0.4-0.2,3.2-0.7,3.8-0.9
	c0.6-0.2,4.1-0.4,3.7-1.4c-0.4-1-0.9-2.1-1.3-2.5c-0.4-0.5-0.9,0.2-1.4,0.9c-0.6,0.7-1.6,0.7-1.9,0.2c-0.3-0.6,0.2-2.3-0.9-1.8
	c-1,0.6-1.2,1.2-1.8,0.9c-0.6-0.3-1.2-1.3-1.2-1.3s1.4-0.7,0.4-2.1c-1-1.3-2.5-1-4-0.3c-1.4,0.7-1.3,0.6-3,1
	c-1.8,0.4-2.6,0.9-2.6,0.9s2.3-1.4,3.4-2.3c1-0.9,2.3-1.3,3.2-2.2c0.9-0.9,3.2,0.5,3.2,0.5s1.2-1.2,1.2-0.5c0,0.7-0.3,2.6,0.6,2.6
	c0.9,0,3.4-1.2,2.3-1.5c-1-0.3,1.4,0,2.5-0.7c1-0.7,2.2-0.7,2.8-1c0.6-0.3,1-1.6,2.1-1.6c1,0,1.4,1.3,0,2.2
	c-1.4,0.9-1.6,3.1-2.3,3.7c-0.7,0.6-0.3,1.3,0.9,1.2c1.2-0.2,2.2,0.2,3.2-0.2c1-0.3,1.6,0.3,1.9,0.7c0.3,0.5,1.2-0.5,1.2-0.5
	s1.9-0.4,2.5,0.3c0.6,0.7,1-0.5,0.6-1.2s-1-1.4-1.4-2.3c-0.5-0.9-1-1.2-2.2-0.9c-1.2,0.3-1.4-0.3-2.2-0.7c-0.7-0.4-1.3,0.6-0.7-0.4
	c0.6-1,0.9-1.3,1.3-2.2c0.4-0.9,2.3-2.5,0.4-2.9c-1.9-0.4-2.5-0.7-2.8-1.6c-0.3-0.9-2.5-2.5-3.1-2.5c-0.6,0-2.6,0-2.8-0.7
	c-0.2-0.7-1.6-2.3-2.3-3s-3.5-4-4-4.2c-0.4-0.3-1-0.2-2.3,1.6c-1.3,1.8-2.5,2.1-3.5,1.6c-1-0.5-1.2-0.3-2.2-1.4
	c-1-1.2,1-1.3,0.6-2.1c-0.5-0.7-2.8-1-4.2-1.2s-2.5-1.8-4.7-1.9c-2.2-0.2-4.8,0.3-5.6,0.3s-0.7,1-1,2.6c-0.3,1.6,1,2.1-0.3,2.3
	c-1.3,0.3-1.9,0.4-0.6,1c1.3,0.6,3,2.9,3,2.9s0,1.3-1,2.1c-1,0.7-2.1,1.4-2.6,0.6c-0.6-0.9-2.2-0.7-1.8,0.2c0.4,0.9,1.3,1.3,1.3,2.2
	s1.3,3.1,0.4,3.8c-0.9,0.7-1.9,0.2-2.6,0.3c-0.7,0.2-1.4-1.2-0.9-1.4c0.6-0.3-0.2-2.5-0.2-2.5s-1.8,2.5-1.6,1.2
	c0.2-1.3-0.7-1.4-0.7-2.5c0-1-0.9-1.4-2.2-1.2c-1.3,0.3-2.9-0.5-5.4-0.9c-2.5-0.4-3.5-0.7-5.6-1.8c-2.1-1-2.8-0.3-3.8-0.2
	c-1,0.2-0.6-2.1-1.9-2.3c-1.3-0.3-2.1,0.3-2.3-1.6c-0.3-1.9,0.4-2.3,3.7-4.4c3.2-2.1,2.8-2.9,5.3-3.2c2.5-0.3,3.7,0.3,3.7-0.5
	c0-0.7,0.6-3.7,0.6-2.2c0,1.4,2.9,1.6,1.6,2.6c-1.3,1-0.6,1.2,0.5,1.2c1,0,2.9-1,2.9-1s2.3-1,2.9-0.2c0.6,0.9,0.6,1.8,1.6,1.8
	c1,0,3.2-1.2,1.3-2.2c-1.9-1-3.1-0.9-4.2-2.1c-1.2-1.2-0.9-0.7-2.2-0.5c-1.3,0.3-1.3-0.5-1.8-0.5c-0.4,0-1.2,0.3-1.4-0.3
	c-0.3-0.6,0.2-0.7,1.6-0.7s3.2,0.5,3.2,0.5s1.8-0.6,2.2-0.7c0.4-0.2,2.8-0.5,2.3-1.8c-0.4-1.3-1.9-1.3-2.3-1.8
	c-0.5-0.5,0.9-1,1.6-1.3c0.7-0.3,2.8,0,2.8,0s1.3,0.2,1.3-0.5c0-0.6-0.3-1.3,0.6-0.9c0.9,0.4,0,1.8,1.3,1.4c1.3-0.3,1.6,0,2.3,0.5
	s-0.2,2.2-0.9,2.5c-0.7,0.3-1.9,0.9-0.3,1s2.8,0.2,2.8,0.2s1-1,1.4-1.9c0.4-0.9,1.2-0.3,1.8,0c0.6,0.3,2.8,0.7,0.7,1.3
	c-2.1,0.6-2.5,1.3-2.9,2.1c-0.5,0.7-0.6,1.2-2.5,0.7c-1.9-0.5-2.9-0.3-3.4,0.5c-0.4,0.7-0.2,3.1,0.6,2.8c0.7-0.3,1.4-0.3,2.3-0.6
	c0.9-0.3,4.4,0.3,5.3,0.2c0.9-0.2,2.3,1.4,2.8,1.2c0.5-0.3,1.3,0.6,2.2,1.2c0.9,0.6,0.6-1.3,2.2-0.2c1.6,1.2,0.7,1.2,1.6,1.2
	s2.8,0.2,2.8,0.2s0.2-1.4,1.6-1.2c1.4,0.3,2.8,1.9,2.6,0.7c-0.2-1.2,0.2-2.1-1-2.9s-3.1-1.4-3.4-1.9c-0.3-0.4-0.6-1-0.2-1.3
	c0.4-0.3,2.5,0.2,3.7,0.9c1.2,0.7,2.2,1.4,3.1,0.9c0.9-0.6,1.9-0.9,2.3-1.3c0.5-0.5,1.4-1.8,1.4-1.8s-4.4-0.6-5-1.3
	c-0.6-0.7-2.6-1.8-3.2-1.8c-0.6,0-2.2,1-2.8-0.5c-0.6-1.4-0.6-3.2-1.2-3.4c-0.6-0.2-6.7-1-7.6-1.4c-0.9-0.4-4.4-1.4-5.7-2.2
	c-1.3-0.7-3.2-1.8-4.4-1.8c-1.2,0-6,0.6-6.9,0.4c-0.9-0.2-3.5,0.3-4.5,0.4c-1,0.2,1.3,2.1-0.9,2.5c-2.2,0.5-1.9,0.7-1.4-1.4
	c0.4-2.2-1.4-2.8-3.4-1.9c-1.9,0.9-5,1.4-4.2,2.5c0.7,1-0.2,1.8,1.3,2.8c1.4,1,2.1,1.3,3.9,1.2c1.9-0.2,3.8,0.3,3.8,0.3
	s0,1.8-0.7,2.1c-0.7,0.3-1.9,0.3-2.2,1.2s-1.8,1.3-1.8,0.9s0.7-1.9-0.3-2.6c-1-0.7-1.3-0.9-2.5-0.2c-1.2,0.7-1.3,1-1.9-0.2
	c-0.6-1.2-2.3-2.2-2.3-2.2s-1.2-1.4-2.1-2.2c-0.9-0.7-2.5-0.6-2.6,0.2c-0.2,0.7,0.3,1.4,0.9,2.8s1.2,3.8,0.2,4
	c-1,0.2-1.2,0.3-2.2,0.6c-1,0.3-1.4-0.5-1.4-1.6c0-1.2-0.5-2.2-0.2-2.6c0.3-0.5-1.2,0.3-2.6,0c-1.4-0.3-2.6,0.6-1.2,1
	s1.8,2.2,0.4,2.6c-1.3,0.5-6.3,0-7.9,0c-1.6,0-3.9,0.5-4.4-0.5c-0.5-0.9,1.3-1.4,2.3-1.4c1,0,4.1,0.2,5.3-1.4
	c1.2-1.6-1.4-1.9-2.6-1.9c-1.2,0-2.1-0.4-3.4-1.8c-1.3-1.3,0.9-2.2,0.6-2.8c-0.3-0.6-1.8-0.2-3.1-0.2c-1.3,0-3.4-1-3.4,0.2
	c0,1.2,1.6,4.5,0.6,3.8c-1-0.7-0.9-1.8-1.6-2.6s-1.9-0.7-3.4-0.6c-1.4,0.2-3.9,0.6-4.7,0.5c-0.7-0.2-0.2-0.2-1.8-0.9
	c-1.6-0.7-2.3-0.6-3.5-1.3c-1.2-0.7-0.2-1-2.2-1.2c-2.1-0.2-1.9,1-4,0.7c-2.1-0.3-2.6,0.2-4.7,0c-2.1-0.2-3.1-0.3-3.4,0.7
	c-0.3,1-0.9,2.8-1.8,2.8s-1.9,1,0.9,1.2c2.8,0.2,1.2,1.4,3.7,1.3c2.5-0.2,4.7-0.2,5.3-1.3c0.6-1.2,1-1.2,1.3-0.7
	c0.3,0.5,2.5,3.1,2.5,3.1s1.4,1.2,2.1,1.4c0.6,0.3-0.6,1.6-1.8,0.9c-1.2-0.7-3.4-0.6-4.2-1.3c-0.9-0.7-4.8-0.7-5.8-0.6
	c-1,0.2-2.8-0.4-3.4-0.4s-2.5,1.4-2.5,1.4s-0.7-1.2-1.2-1.8c-0.5-0.6-1.2,0.6-1.8,0.7c-0.6,0.2-2.3-1.2-4.1-0.6
	c-1.8,0.6-1.2,1.2-3.7,1s-3.1-0.6-4-0.5l-0.9,0.2c0,0,0.2,0.6-0.9,1.2c-1,0.6-1.8,1.3-2.5,0.5c-0.7-0.9-1.2-0.9-1.6-1
	c-0.5-0.2-1.3-0.9-3.2-0.5c-1.9,0.5-4.8-0.6-5.4-0.6s-5.9-0.3-7-0.6c-1.2-0.3-4.2-0.3-5.4-0.2c-1.2,0.2-4.1,0.2-4.1,0.2
	s-2.2-1.4-2.6-1.4c-0.4,0-2.1,0.7-2.8,0c-0.7-0.7-2.1-1.2-2.1-1.2s-0.6,1.6-1.6,1.9c-1,0.3-3.2,0.9-3.7,0.6
	c-0.4-0.3-4.2,1.2-4.2,1.2s-2.3,1.9-2.9,1.8c-0.6-0.2-2.9-0.4-2.6,0.2c0.3,0.6,0,1.8,2.3,1.8s2.5,0.9,3.4,1c0.9,0.2,1.2,0,2.2,0.9
	c1,0.9,1,1.8-0.3,1.6c-1.3-0.2-2.8-0.5-3.7-1.2l-0.9-0.7L17.2,310z M13.7,321.2c-0.6,0.2,1,1.2,1.6,1.2c0.6,0,1.6-1.6,0.5-1.6
	C14.6,320.8,15.2,320.8,13.7,321.2z M4.1,333.9c-1.8-0.2-3.5,0-3.8,0.6c-0.3,0.6,1.6,1,2.8,1s3.5-0.7,3.1-0.9
	C5.7,334.5,4.1,333.9,4.1,333.9z M15.2,333.6c-0.3,0.5-2.9,0.9-4.1,0.6c-1.2-0.3,0.6-1,2.1-1.3c1.4-0.3,0.7-2.7,2.2-2.2
	C15.8,330.8,15.5,333.2,15.2,333.6z M544.9,332.9c-0.4-1.2-1.3-2.1-2.4-1.9c-1.3,0.2-2.1,0.9-3.4,0.9c-1.3,0-0.3-2.1-0.9-2.1
	c-0.6,0-1.9,1.9-2.6,0.9c-0.7-1,2.1-2.3,4.2-3.1c2.2-0.7,5.9-5,7.3-5.1s5.1,0.3,8.3,0.2c3.2-0.2,4.2-1.4,5.3-0.7
	c1,0.7,3.2,1.6,4.5,1.4s0.7,0,2.8-1.4c2.1-1.4,3.9-2.2,5-3.4c1-1.2,3.8-2.1,4-0.9c0.2,1.2-0.3,2.3,0.9,2.3c1.2,0,2.9-1.2,4.4-1.8
	c1.4-0.6,2.6-1.3,2.6-1.3s-6,4.1-7.5,5c-1.4,0.9-5,1.4-6.4,3.2c-1.4,1.8-2.3,2.3-2.2,4.2c0.2,1.9,2.6,4.4,1.4,6.1s-1.6,4.2-1.6,4.2
	s1.8-2.5,4.2-4.1s3.9-3.8,4.8-4.7c0.9-0.9,3.5-1,3.5-2.1s0.7-2.3,1.2-3.5c0.5-1.2-0.9-0.9,0-2.3c0.9-1.4,0.7-2.6,5.1-2.6
	c4.4,0,2.9,0.3,6.4,0.2c3.5-0.2,4.8-1.9,8.2-2.8c3.4-0.9,6-1.4,7-1c1,0.4,2.6,0.2,1.6-0.9s-3.4-2.5-2.2-2.8c1.2-0.3,2.3-0.4,2.8-1.6
	c0.4-1.2-1.6-3.2-0.5-4.4c1.2-1.2-0.9-2.6-2.3-2.9c-1.5-0.3-7.2,0.3-8.3-0.3c-1.2-0.6-3-1.3-3.7-0.9c-0.6,0.4-1.9,2.8-1.9,2.8
	s-1,0.3-1.9-1s-5.7-1.2-7.2-1.2c-1.4,0-3.1,0.3-4.7,0.5s-2.5,0.6-3.7-0.5c-1.2-1-2.8-1.4-3.4-1.9s-3.8-0.5-6.3-0.2
	c-2.5,0.3-5,0.3-5,0.3s-1.2-0.4-2.9-1.4c-1.8-1-3.5-1.8-4.1-1.8c-0.6,0-5.1,0.7-6.1,0s-2.1-1.2-2.8-1.2s-1.3-1.2-0.5-1.2
	c0.9,0,5-1.2,5-1.2s-1.2-1.6-2.6-1.6s-4.1-0.7-4.8-0.7s-0.2,0.7-1.6,0.5c-1.4-0.3-2.9-0.9-3.8-0.3c-0.9,0.6-2.9,1.4-0.7,2.1
	c2.2,0.6,4.2,0,4.8,0.9c0.6,0.9,0,1.3,0,1.9c0,0.6-1.2,2.2-1.9,2.5c-0.7,0.3-1.6-0.4-3.1,0.3c-1.4,0.7-5.1,0.2-5.6,0.6
	s-1.3-1.2-2.1-0.9c-0.7,0.3-2.6,2.2-3.7,2.1c-1-0.2-2.3-1.2-2.3-2.3c0-1.2-0.4-2.6-0.9-2.9c-0.5-0.3-3.7-0.4-4.8-0.3
	c-1.2,0.2-4.8,0.4-5.4,1c-0.6,0.6-2.2,1-3.2,1c-1,0-1.9-1-4.1-1.3c-2.2-0.3-7-0.5-7.6-0.3c-0.6,0.2-2.5-0.3-1.8-0.9
	c0.7-0.6,2.9-2.5,1.6-3.4c-1.3-0.9-4.2-0.9-5.6-1c-1.3-0.2-2.6-0.4-4.7-0.2c-2.1,0.3-2.5,1.3-3.4,0.5c-0.9-0.9,2.2,0.5-0.9-0.9
	c-3.1-1.3-4.5-1.2-5.4-0.7c-0.9,0.5,0.2,0.3-2.2,1.2s-3.7,1.3-4.2,1.5c-0.6,0.2-4.2-0.7-4.6-1c-0.5-0.3-2.1,0.2-3.5,0.7
	c-1.5,0.6-2.5,1.4-4,1.2c-1.4-0.3-3.8-0.3-5.3,0.3c-1.4,0.6-2.5,0.6-4,1.6c-1.4,1-4.2,1.6-4.2,1.6s-2.5-0.2-3.8-0.2
	c-1.3,0-3.1,0-1.9,1c1.2,1,4.7,2.1,5.1,2.6c0.5,0.6,1,2.3,0.3,2.8c-0.7,0.5-1.9,0.3-2.1-1s-0.3-1.4-2.1-2.1
	c-1.8-0.6-1.6-0.2-3.1-1.4c-1.4-1.3-3-1.2-3.8-0.3c-0.7,0.9-0.3,2.6-1.2,2.8c-0.9,0.2-1.9,0.7-2.1-0.6c-0.2-1.3-0.2-3.8-1.2-2.3
	c-1,1.4-1.4,1.4-1.4,2.2c0,0.7,0.9,1.4,0.6,2.8c-0.3,1.3-0.3,2.2,0.2,2.2c0.4,0,1.4-1.3,2.8-1.6c1.3-0.3,3.7-1,3.8,0.3
	s1.6,1.8,0.2,2.3c-1.4,0.6-3.1,0.3-3.4-0.6c-0.3-0.9-1.3-0.9-2.3-0.2c-1,0.7-3.2,3.4-3.2,3.4s-3.5,1.6-3.9,1.3
	c-0.5-0.3,1.2-1.9,2.3-2.6c1.2-0.7,2.1-2.3,1.6-2.8c-0.4-0.4-1-3.2-0.7-4c0.3-0.7,1.6-1.8,0.2-2.5c-1.5-0.7-2.5-1.6-3.7-2.1
	c-1.2-0.4-2.5,1.8-3.5,2.3c-1,0.6-0.9,1.3-2.2,1.4c-1.3,0.2-2.2,1.9,0,2.9c2.2,1,2.9,1.8,2.4,2.3c-0.6,0.6-3.1-0.3-3.1-0.3
	s-1.9-0.9-3.1-0.9c-1.2,0-2.6-0.7-3.8-0.9c-1.2-0.2-3.5-0.2-4.1,0.4c-0.6,0.6-2.1,2.3-3.2,1.8c-1.2-0.6-1.2-1.2-2.8-0.6
	c-1.6,0.6-3.2-0.5-4.1,0.4s-0.2,0.9-2.9,0s-2.2,0.6-4.8,1c-2.6,0.5-4.2-0.4-5,0.5c-0.7,0.9-1.8,2.5-2.2,1.4c-0.4-1,1.4-2.8,0.7-3.4
	c-0.7-0.6-3.8-0.3-4.2,0.2c-0.5,0.5-0.2,2.1,0.2,2.6c0.3,0.6,0.7,2.9-0.2,2.5c-0.9-0.5-0.7-1.9-1.6-1.8c-0.9,0.2-1.9,0.6-2.3,0.9
	c-0.5,0.3-2.2,0.3-2.6,0.9c-0.4,0.6,0.2,2.2-0.6,2.3c-0.7,0.2-1.3,0.7-2.9-0.3c-1.6-1-1.6-0.4-2.1-0.2c-0.5,0.3-2.5,1.4-2.6,0.2
	s0.3-1.8-1-2.6c-1.3-0.9-0.3-0.9,1.4-0.3c1.8,0.6,3.9,0.9,7.2-0.2c3.2-1,4.5-1.4,3.2-2.1c-1.3-0.6-2.6-1.2-4.7-1.4
	c-2.1-0.3-4.8-0.3-8-1.4c-3.2-1.2-4-1.6-5.3-1.9c-1.3-0.3-9.4-1.6-13-1c-3.7,0.6-13.7,3.2-14.3,3.7c-0.6,0.4-1.4,2.2-3.4,3.7
	c-1.9,1.4-5.4,4.8-8.2,5.4c-2.8,0.6-6,2.9-6,3.5c0,0.6,1.2,2.8,0.9,3.2c-0.3,0.5,0.6,2.6,2.2,3.2c1.6,0.6,4.4,0.4,4.5-0.5
	s2.3-2.8,2.5-1.4s1.6,3.4,1.3,4.2c-0.3,0.9,0,1.8,1,1.6c1-0.2,6.4-1.3,6.4-1.3s1.8-0.7,1.4-1.9c-0.3-1.2,1.9-2.8,2.3-3.2
	c0.5-0.4,2.1-2.2,0.2-2.8c-1.9-0.6-3.4-0.7-1.3-2.5c2.1-1.8,3.4,0,6-2.6c2.6-2.6-0.6-3.4,2.2-3.5c2.8-0.2,5.7-0.3,5.1,0.6
	c-0.6,0.9-3.9,2.8-5.8,3.7s-1.6,2.5-0.9,3.4c0.7,0.9,1,2.9,2.3,2.6c1.3-0.3,2.9-1.3,4.4-1.2c1.4,0.2,4.4-0.2,4.8-0.2
	s2.5,2.1,1.3,2.3c-1.2,0.3-2.6,0.2-5.1,0.3c-2.5,0.2-5.3,0.2-5.3,0.6c0,0.5,3.4,1.4,2.2,2.2c-1.2,0.7-2.3-0.2-3.8-0.3
	c-1.4-0.2-2.3,1.9-2.8,3.1c-0.4,1.2,0.7,3.2-1.4,2.5c-2.2-0.7-3.8-0.7-4.4-0.4c-0.6,0.3-2.3,0.9-3.8,1.3c-1.4,0.5-0.9-0.7-2.8-0.7
	h-1.9l-1.2,0.2c0,0-1.2-0.7-1.3-1.9c-0.2-1.2,0.6-2.5-0.2-2.8c-0.7-0.3-3.4,0.2-3.8,1s-0.9,2.5-0.3,3.2s2.3,2.2,0.7,1.8
	c-1.6-0.5-3.7-0.6-4.8,0.3s-3.2,2.8-3.2,2.8s-3.7,0.3-3.7,1.2c0,0.9,0,2.1-1.3,2.2c-1.3,0.2-3.1,0.6-4.8,0.9c-1.8,0.3-1.6,1-3.7,1.2
	s-2.3,1-0.4,1.3c1.9,0.3,4.8,1.4,5,2.8c0.2,1.3-0.2,2.8-0.9,4.1c-0.5,0.9-3.5,0.3-5.3,0.3c-1.8,0-5.3-0.6-6.7,0
	c-1.4,0.6-1.2,3.5-0.7,4.8c0.4,1.3-0.2,2.1-0.7,2.5c-0.6,0.4-0.7,1.8,0,2.3c0.7,0.6,1.3,1.9,1.9,2.1c0.6,0.2,2.5-0.5,3.2,0.3
	c0.7,0.7,1.4,2.5,1.9,2.1c0.5-0.5,1-2.3,1.8-1.9c0.7,0.5,2.5-0.2,3.8-0.3c1.3-0.2,2.1-1.6,3.4-2.3c1.3-0.7,0.6-0.7,0.2-1.6
	c-0.5-0.9,1.3-1.9,2.4-2.9c1-1,2.9-0.2,3.4-1.3c0.5-1.2,0.6-3.2,1.8-3.1c1.2,0.2,2.8,0.9,3.8,0.9s3.2-1.6,3.8-1.9
	c0.6-0.3,2.8-0.2,3.1,1.2c0.3,1.3,2.8,2.9,3.4,3.2c0.6,0.3,4.4,1.4,5,1.9s1.4,1.8,1.8,2.9c0.3,1.2,1.3,1.2,1.4,0.2
	c0.2-1-0.7-2.9,0.3-2.8c1,0.2,2.2-0.3,2.2-0.3s-2.8-1.9-3.8-2.3c-1-0.5-2.9-1.3-3.8-2.8c-0.9-1.4-3.1-1.8-2.9-3.2
	c0.2-1.4,2.2-0.6,3.4,0.6c1.2,1.2,4.1,2.8,5.1,3.8c1,1,2.6,1.4,3,2.8c0.4,1.3,1.8,2.8,2.2,3.4c0.5,0.6,1.9,3.8,2.4,4.5
	c0.5,0.7,1.9-0.2,2.6-0.7c0.7-0.6,2-0.9,2.2-2.1c0.2-1.2-1.8-2.1-2.3-2.5c-0.6-0.5,1.4-0.9,2.2-1.4c0.7-0.6,2.1-1.6,2.6-0.7
	c0.6,0.9,0.3,4.4,0.6,5c0.3,0.6,3.2,1.4,3.8,2.2c0.6,0.7,3,1,3.5,0.6c0.4-0.5,2.8,0.3,3.4,0.5c0.6,0.2,2.3-0.3,3.5-0.6
	c1.2-0.3,2.3-1.2,2.2,0.7c-0.2,1.9-0.6,4.8-2.1,6.3c-1.4,1.4-0.9,2.2-2.3,2.2c-0.7,0-1.3,0-1.8,0.2c-0.5-0.8-1.1-1.3-2-1.1
	c-1.8,0.5-4,0.5-5.4,2.2s-2.1,1.9-2.3,1.3c-0.3-0.6,4.2-3,3.7-3.8c-0.6-0.7-4.1-0.4-6-0.4s-3.5-1.2-5-1.4c-1.4-0.3-3.4,1.4-4.8,2.9
	c-1.4,1.4-2.5,0.4-3.8,0.4c-1.3,0-3.8-1.9-3.8-1.9s-2.5-1-3.5-1s-3.1-1.9-3.7-1.9s-2.2-1.3-1-1.9c1.2-0.6,2.3,0.6,1.2-2.6
	c-1.2-3.2-3.8-2.5-4.8-2.1c-1,0.5-8.3,0.3-8.9,0.3s-4.8,1.4-6.1,2.1c-1.3,0.6-3.7,1.3-4.2,1.6c-0.6,0.3-3.7-0.6-5,0.2
	c-1.8,1-3.4,2.5-3.8,2.5c-0.4,0-1.8,1-2.6,3.2c-0.9,2.2,0.2,4.1-1.4,4.8c-1.6,0.7-4.5,2.3-5.7,3.5c-1.2,1.2-2.6,5.3-4.1,7.2
	c-1.4,1.9,0,3.7,0.3,4.8c0.3,1.2,1.3,3.4-0.3,5.4c-1.6,2.1-1.4,3-2.2,3.2c-0.7,0.2,0.7,0.7,1,2.2c0.3,1.4-1.3,2.9,1.4,4.2
	c2.8,1.3,4.1,2.5,4.8,4.2c0.7,1.8,4.4,4.7,4.4,4.7s2.6,2.3,4,3.4c1.3,1,1.8,0.4,2.1-0.6c0.3-1,2.1-1.2,4.1-1.2
	c2.1,0,3.5,0.5,5.6,0.2c2.1-0.3,4.1-1.6,4.8-1.9c0.7-0.3,3.2-1.9,5.1-0.7c1.9,1.2,1.6,2.8,2.6,3.8c1,1,2.8,0.4,4.1-0.6
	c1.3-1,0.7-0.6,2.4,0.3c1.6,0.9,2.3,1.8,0.9,3.1c-1.4,1.3-0.6,3.4-1.4,5.4c-0.9,2.1-0.7,2.3,0.9,3.2c1.6,0.9,4.5,6.3,5.4,7.3
	c0.9,1-0.3,3.9,0.7,5.7c1,1.8,2.1,2.9,0.9,3.8c-1.2,0.9-3.2,2.5-3.4,5.4c-0.2,2.9,0.6,5,1.2,6c0.6,1,2.1,3.8,2.8,4.8
	c0.7,1,1.6,3.5,1.8,5.1c0.2,1.6-0.3,3.5,0.5,4.4c0.7,0.9,1.2,2.2,2.5,3.4c1.3,1.2,1.8,3.7,1.8,3.7s0.4,1,0.6,2.6
	c0.2,1.6,0.3,2.6,1.8,3.4c1.5,0.7,2.5,0.9,3.2,0.2c0.7-0.7,4.4-0.9,6.3-0.7s4.1-0.9,6-2.2c1.9-1.3,4.7-4.8,5.7-5.8
	c1-1,3.4-2.9,3.1-4.1c-0.3-1.2-0.9-2.3,0.3-2.9c1.2-0.6,4-1.8,4.1-2.6c0.2-0.9-1-4.5-1.3-5.3c-0.3-0.7,0.7-2.1,1.9-3.5
	c1.2-1.4,4.8-2.5,5.4-3c0.6-0.6,2.2-3.1,2.5-5c0.3-1.9-0.6-4.2,0-5.3c0.6-1,0.2-1.9-1.2-3.1c-1.3-1.2-1-4.7-1.4-5.3
	c-0.5-0.6-0.2-3.7,0.7-4c0.9-0.3,2.8-3.2,4-4.5c1.2-1.3,4.5-5.4,6.1-5.7c1.6-0.3,4.1-2.6,4.2-4c0.2-1.3,4.4-6.3,4.5-7.3
	c0.2-1,1.9-4.8,1.2-5.7c-0.7-0.9-6.4,1.3-7.2,1.6c-0.7,0.3-2.8,1.4-5.1,1.3s-1.3-2.1-1.4-2.9c-0.2-0.9-2.6-4.2-3.2-4.4
	c-0.6-0.2-2.3-1.9-3.1-3.7c-0.7-1.8-1.8-4-2.9-5.3c-1.2-1.3-1.9-4.4-3.1-6.4c-1.2-2.1-2.2-4.7-3.2-6.6c-0.2-0.5-0.5-0.9-0.8-1.3
	c1.4-0.3,3.3-1,3.6-0.1c0.3,1,1.9,3.2,2.2,4.8c0.3,1.6,1.9,1,2.1,2.5c0.2,1.4,1.6,5,2.2,5.4c0.6,0.5,3.2,2.8,3.7,3.7
	c0.4,0.9,1,2.1,1.4,4.2c0.5,2.2,0.9,5.1,2.1,5.6c1.2,0.4,5.1-0.7,5.8-1.2c0.7-0.5,5.6-2.8,7.3-2.9c1.8-0.2,2.1-1.3,4.2-1.8
	c2.2-0.4,3.8-2.1,5.3-3.2c1.5-1.2,3.2-4.1,3.8-5.1c0.6-1,2.1-1.8,1.3-2.9c-0.7-1.2-3.8-2.9-5-3.1c-1.2-0.2-1-2.1-1.8-2.1
	c-0.7,0-0.6,1-2.1,1.8c-1.4,0.7-2.9,2.2-4,1.9c-1-0.3,0.3-1-1.3-2.3s-2.2-1.6-2.2-2.6c0-1-3.2-2.9-3.5-4.4c-0.3-1.4,2.2-3.5,2.9-2.2
	c0.7,1.3,1.3,3.4,3.2,4.2c1.9,0.9,3.7,2.3,4.5,2.6s3.1-1.6,3.8-1.3c0.7,0.3,2.2,2.9,3.5,3.4c1.3,0.5,5.7,0.6,6.4,0.6
	c0.7,0,3.8,0.2,4.4-0.7c0.6-0.9,1-0.9,1.8-0.9c0.7,0,2.1,2.6,3,2.9c1,0.3,2.9,0.2,2.8,2.1c-0.2,1.9,0.9,3.5,1.9,3.7
	c1,0.2,3.4-2.2,3.4-2.2s0,3.7-0.2,5c-0.2,1.3,1.6,6.1,1.6,6.1s2.2,4.5,2.8,5.6c0.6,1,3.1,4.1,3.1,5.4s0.3,3.4,1.2,3.4
	s1.8-2.3,2.8-3.8c1-1.4,1.3-3.5,1.8-5c0.4-1.4,0.4-4.1,0.4-5.1s0.9-1.9,2.9-2.8c2.1-0.9,3.5-3.4,5.3-4.7c1.8-1.3,1.6-3.5,5.1-3.5
	c3.5,0,3.2,0,4.1-0.9s1.8-1.4,2.2,0.2c0.4,1.6,2.9,4,3.4,4.5c0.5,0.6,1.3,2.2,1.2,4s0.2,3.8,0.9,3.8c0.7,0,2.2-2.5,2.2-2.5
	s3.2-2.2,3.1,0.2c-0.2,2.3,0.3,4.8,0.3,6.3c0,1.4,2.6,5,2.6,4.1s1.2-3.4,1.2-4.7s0.7-0.7,2.6,0.6c1.9,1.3,3.2,4,3.2,4
	s1.9,1.8,2.2,2.5c0.3,0.7,2.3-0.3,2.8-1.2s0.7-1.3,1.9-1.6c1.2-0.3,2.6-0.3,3.1-1.9s1.8-3.5,0-5.7c-1.8-2.2-2.6-3.7-4-4.7
	c-1.3-1-2.3-3.7-2.3-3.7s2.8-2.5,3.7-3.4c0.9-0.9,2.2-0.3,2.3,0.7c0.2,1-1.3,1.9-1.6,4.1c-0.3,2.2,1.8,2.9,2.3,2.2
	c0.6-0.7,2.1-2.5,2.1-2.9c0-0.4-1-0.3-1.2-1.9s1.9-2.8,2.6-2.3c0.7,0.5,5.4-0.6,7.6-1.8c2.2-1.2,3.5-3.7,4.8-4.7
	c1.3-1,5.8-4.4,5.6-6c-0.3-1.6,0.2-3.8-1-5.8c-1.2-2.1-2.6-3.4-3.2-4.2s2.5-1,3.9-2.3c1.4-1.3,0-2.5-0.7-2.3
	c-0.7,0.2-2.6,0.6-3.4,0.4c-0.7-0.2-1.2-0.9-2.3-1.8c-1.2-0.9,0.3-2.2,1-2.1c0.7,0.2,2.6-1.4,3.5-2.2c0.9-0.7,2.2-1.3,1.8-0.6
	c-0.5,0.7-1.4,3.4-0.3,3.5c1.2,0.2,4-2.2,4.4-2.1c0.4,0.2,1.2,2.1,0.7,2.9c-0.4,0.9-0.4,2.3,0.2,2.2c0.6-0.2,1.8-1.4,2.1-1
	c0.3,0.5,1.8,1.3,1,2.9c-0.7,1.6-2.2,2.2-0.5,3.2c1.8,1,2.3,0.2,3.7-0.6c1.3-0.7,2.2-4,1.4-5c-0.7-1-2.5-3.1-2.5-3.8
	c0-0.7,2.9-0.7,2.9-1.9c0-1.2,1-2.1,2.1-2.5c1-0.5,2.4-2.3,2.8-1.8c0.4,0.6,3,1.3,3.8,0.4c0.7-0.9,4.5-4.1,6.9-5.8
	c2.3-1.8,3.2-3.8,3.8-5.8c0.6-2.1,1.4-3.4,1.2-5c0.9,2.1,1,3.5,0.9,5.1s0,5,0.3,5.4c0.3,0.5,1.4,1.4,2.2,1.2
	c0.7-0.3-0.3-3.2-0.3-3.8c0-0.6,1-1.4,1.6-1.6s0-2.6-0.7-3.7c-0.7-1-1.8-1.6-1.1-1.8c0.6-0.2,1.3-1.3,0.9-1.6
	c-0.5-0.3-0.2-1.3-1.2-1C546.9,332.1,544.9,331.7,544.9,332.9z M490.4,437.1c-0.3,0.4-1.5,0.6-2.4,0.7c-1.4,0.2-3.1-0.2-3.5-0.4
	c-0.4-0.3-1.8-1.3-0.7-2.6c0.6-0.7,1.4-0.7,2.1,0.5c0.6,1.2,2.5,0.3,4.1,1.2c0.3,0.2,0.5,0.3,0.5,0.5c0.3-0.4,1.1-0.6,1.8-0.9
	c0,0,3.7,0.9,4.4,0.9c0.7,0,2.5,1.3,2.3,2.2c-0.2,0.9-2.8-0.2-4.5,0c-1.8,0.2-2.5-0.3-3.7-1.3C490.6,437.4,490.5,437.2,490.4,437.1z
	"/>
</svg>
