<?xml version="1.0" encoding="utf-8"?>
<!-- Generator: Adobe Illustrator 17.1.0, SVG Export Plug-In . SVG Version: 6.00 Build 0)  -->
<!DOCTYPE svg PUBLIC "-//W3C//DTD SVG 1.1//EN" "http://www.w3.org/Graphics/SVG/1.1/DTD/svg11.dtd">
<svg version="1.1" id="Layer_1" xmlns="http://www.w3.org/2000/svg" xmlns:xlink="http://www.w3.org/1999/xlink" x="0px" y="0px"
	 viewBox="0 0 2027 824" enable-background="new 0 0 2027 824" xml:space="preserve">
<path fill="none" stroke="#1EA2FF" stroke-miterlimit="10" d="M1746.6,508.5c-3.6,3.6-5.3,3.9,2.9,5.3c8.2,1.5,10.6,1.5,7.2,5.3
	c-3.4,3.9-5.8,8.7-2.9,9.2c2.9,0.5,11.6-1.9,12.6,0c1,1.9-1.9,2.4,7.7,3.9c9.7,1.5,11.6,4.9,13.5,6.8c1.9,1.9,7.7,8.2,3.9,8.2
	c-3.9,0-8.2,4.8-5.3,5.3c2.9,0.5,11.6-1.4,12.1,0c0.5,1.4,5.3,10.6,10.1,10.2c4.8-0.5,7.7-9.2,10.1-11.6c2.4-2.4,12.1-3.9,13.1,0.5
	c1,4.4,3.9,8.7,9.7,11.6c5.8,2.9,12.6,5.8,13.1,3.4c0.5-2.4-2.9-11.6-6.8-13.1c-3.9-1.5-10.6-9.7-10.6-13.1c0-3.4-5.8-4.3-8.7-6.8
	c-2.9-2.4-5.3-9.2-12.6-10.6c-7.2-1.5-9.2-3.9-16.9-7.7c-7.8-3.9-25.1-3.9-25.6-1.5c-0.5,2.4,0,0-5.8-1.9c-5.8-1.9-10.1,0-11.6-3.4
	C1754.3,505.2,1750.9,504.2,1746.6,508.5z M1713.7,451.5c-6.8,8.7-6.3,6.8-11.1,4.8c-4.8-1.9-12.6,4.3-11.1,6.8
	c1.4,2.4,12.1-0.5,14.5,3.9c2.4,4.3,2.4,4.8,7.3,3.9c4.9-1,9.7-7.7,8.2-11.1C1720,456.3,1713.7,451.5,1713.7,451.5z M1712.2,433.6
	c-1.9-0.1-8.2,10.1,0.5,9.7C1721.4,442.8,1719,434.1,1712.2,433.6z M1696.3,440.9c-1.6,0.6-5.8,9.2-0.5,9.2c5.3,0,14.5,1.4,12.6-1
	C1706.4,446.7,1701.6,438.9,1696.3,440.9z M1691.9,398.8c-3.4,0,0.5,5.3-4.3,8.7c-4.8,3.4-10.2,4.8-7.3,10.6
	c2.9,5.8,13.1,10.1,10.6,12.6c-2.4,2.4-9.7,7.3-10.6,11.6c-1,4.3,11.6-6.8,15-11.1c3.4-4.3,10.1-1.9,11.6-4.3l1.4-2.4
	c0,0-5.3-1-9.7-2.4c-4.4-1.5-9.7,3.9-7.3-3.9c2.4-7.7,9.7-6.3,8.2-12.1C1698.2,400.3,1693.4,398.8,1691.9,398.8z M1668.2,467
	c-0.2-3.4-7.7,1-8.2,4.3c-0.5,3.4,5.3,6.3-3.8,6.3c-9.2,0-9.7,7.3-11.6,8.7c-1.9,1.4-3.9,1.9-7.8,2.9c-3.9,1-4.8,4.8-5.8,7.3
	c-1,2.4-7.7-4.3-9.7-2.4c-1.9,1.9-0.5,11.1,2.9,18.9c3.4,7.7,12.1,12.6,14.5,12.6c2.4,0,7.3,0,10.7,1c3.4,1,14.5,1.9,14-2.4
	c-0.5-4.3-1.5-11.1,3.4-15.5c4.8-4.3,9.7-6.8,7.3-13.1c-2.4-6.3-7.3-10.1-3.9-13c3.4-2.9,7.3-3.9,7.3-6.3
	C1677.4,473.7,1669.2,482.9,1668.2,467z M1734.5,492.6c-4.4-1.9-12.6,15.9-6.8,17.4C1733.5,511.4,1737.9,494,1734.5,492.6z
	 M1685.2,499.4c-3.4,3.4-1,6.8,4.3,6.3c5.3-0.5,16.4-1.9,18.9-1.9c2.4,0,5.8-6.3,3.9-6.3c-1.9,0-15.5,2.4-16.9,2.9
	C1693.9,500.8,1685.2,499.4,1685.2,499.4z M1682.3,509c-2.9,1-2.4,3.4-3.4,8.2c-1,4.8-5.3,8.2-1.5,10.7c3.9,2.4,11.1-8.2,13.1-4.8
	c1.9,3.4-0.5,4.8,2.9,9.2c3.4,4.4,9.7,3.9,9.7,3.9s-0.5-11.6-5.8-14.5c-5.3-2.9-8.7-6.3-2.4-5.3c6.3,1,9.7-1.4,8.2-4.3
	c-1.5-2.9-10.6-1.5-13.6-1C1686.6,511.4,1682.3,509,1682.3,509z M1703.5,563.2c0.7,5.3,10.6-2.9,10.6-2.9s7.8-1,7.8-4.3
	c0-3.4-7.8-7.7-10.6-3.9C1708.4,555.9,1703.1,559.8,1703.5,563.2z M1677.9,559.8c-1.1,4.3,7.2,6.3,7.7,1.5
	C1686.1,556.4,1678.9,555.9,1677.9,559.8z M1561.9,448.6c-3.9,0.5-3.9,7.7-1.9,10.2c1.9,2.4,5.8,1,8.2,9.7
	c2.4,8.7,7.3,17.4,9.2,20.8c1.9,3.4,10.2,8.2,13.1,10.6c2.9,2.4,7.2-1,5.3-3.9c-1.9-2.9-5.8-7.2-6.3-10.6c-0.5-3.4-2.9-8.7-6.8-14.5
	c-3.9-5.8-7.2-7.3-9.7-11.1C1570.6,455.9,1561.9,448.6,1561.9,448.6z M1543,474.2c-6,1.2,8.7,11.6,10.2,13.1
	c1.4,1.4,14.5,12.6,14.5,17.9c0,5.3,8.7,17.9,11.1,19.8c2.4,1.9,14.5,9.2,16.5,13.1c1.9,3.9,6.3,4.9,6.3-0.5c0-5.3,1-11.6,3.4-14.5
	c2.4-2.9,1.5-7.3-2.4-6.8c-3.9,0.5-7.2-6.3-13.5-10.6c-6.3-4.4-11.1-7.3-16.9-13.5c-5.8-6.3-13.1-10.2-16.9-13.5
	C1551.2,475.2,1545.4,473.7,1543,474.2z M1941,624.1c-8.7-1.9-2.9,1.5,0,5.8c2.9,4.3,8.7,6.6,9.7,1.9
	C1951.1,629.4,1949.7,626,1941,624.1z M2012,607.7c6.3,2.4,17.4-8.7,13.1-10.1C2020.7,596.1,2012,607.7,2012,607.7z M1791,706.8
	c0.5,1.5,6.8,1.9,6.8,6.8c0,4.8,0,7.7,1.4,8.7c1.5,1,9.2,0,12.6,5.8c3.4,5.8,5.8,0.5,7.7-1.9c1.9-2.4,8.7,1,10.6,2.9
	c1.9,1.9,7.2-3.9,14.5-5.8c7.3-1.9,6.3-1.5,8.2-4.4c1.9-2.9,3.4-10.6,7.7-16.4c4.4-5.8,10.2-16,10.2-23.7c0-7.7-0.5-25.6-5.8-33.8
	c-5.3-8.2-15.5-16.4-15-20.8c0.5-4.3-8.2-4.3-12.6-7.7c-4.4-3.4-4.8-13.5-7.2-19.3c-2.4-5.8-7.2-9.7-12.1-15
	c-4.8-5.3-7.2-17.4-8.7-16.5c-1.4,1-5.8,15-2.4,19.4c3.4,4.4-1.4,13-3.9,18.9c-2.4,5.8-8.2-1-13.1-3.9c-4.8-2.9-11.6-4.8-15-8.2
	c-3.4-3.4,5.8-12.6,3.4-16c-2.4-3.4-15.5-0.5-16.9-0.5c-1.4,0-4.3-4.8-7.2-4.8c-2.9,0-2.4,9.7-2.4,9.7s-2.9-3.4-7.2-7.7
	c-4.4-4.3,0.5,2.9-3.9,7.3c-4.3,4.3-2.9,2.9-4.9,7.7c-1.9,4.8-6.3,2.9-10.6-1.9c-4.4-4.8-6.8-1.4-9.7,0c-2.9,1.4-5.3,9.7-6.8,11.6
	c-1.5,1.9-11.6,4.4-14,6.8c-2.4,2.4-3.4,10.2-3.4,12.1c0,1.9-10.2,1-13.5,3.4c-3.4,2.4-8.7,1-12.1,1c-3.4,0-15,9.2-18.9,11.6
	c-3.8,2.4-3.8,11.1-1.9,13.6c1.9,2.4,5.8,8.2,3.4,9.2c-2.4,1-3.9,7.7,1.9,13.5c5.8,5.8,3.9,7.3,4.3,10.2c0.5,2.9,2.9,3.9,6.8,8.7
	c3.9,4.8-6.8,8.7-8.2,11.6c-1.5,2.9,3.4,7.2,6.3,9.7c2.9,2.4,10.1,1,14.5-0.5c4.3-1.5,9.2-5.3,12.1-5.8c2.9-0.5,16.4-1,16.4-1
	s4.8-7.2,8.2-11.1c3.4-3.9,14-0.5,14-0.5s4.3-2.9,15.9-5.3c11.6-2.4,6.8,2.4,11.1,3.9c4.4,1.4,10.2,2.4,13.5,4.8
	c3.4,2.4,0,8.2-0.5,10.6c-0.5,2.4,8.2,1.5,8.7-1c0.5-2.4,2.9-4.8,7.7-7.7c4.8-2.9,1,4.4,2.9,8.7c1.9,4.3,4.8-5.9,4.8-1
	C1789.1,703.9,1790.6,705.3,1791,706.8z M1824.4,740.1c-5.3,5.3,5.3,5.3,3.9,10.6c-1.5,5.3,7.2,3.4,9.7,2.4c2.4-1,8.2-12.1,7.2-15
	c-0.9-2.9-10.6,4.8-13,4.4C1829.8,742.1,1824.4,740.1,1824.4,740.1z M1985.9,736.3c-0.8,2.3-4.8,2.9-7.7,5.3c-2.9,2.4,0,3.4-8.2,8.2
	c-8.2,4.8-18.4,10.1-20.3,14.5c-1.9,4.4,1.9,6.8,9.7,7.3c7.7,0.5,5.8,1.9,11.1-3.9c5.3-5.8,10.2-9.2,16.4-14
	c6.3-4.8,6.3-12.1,6.3-12.1S1986.4,734.8,1985.9,736.3z M1989.8,705.3c-1.9,1,0,6.3,1.9,8.2c1.9,2,2.9,8.7,2.4,10.7
	c-0.5,1.9-8.7,4.4-4.8,6.8c3.9,2.4,11.1,0,10.2,2.9c-1,2.9-4.8,6.8-0.5,7.7c4.4,1,5.8-3.4,7.7-6.8c2-3.4,3.4-6.3,6.8-8.2
	c3.4-1.9,0-6.3-1.9-6.3c-1.9,0-2.9,2.4-7.3,0c-4.3-2.4-3.4-1.5-6.3-6.3C1995.1,709.2,1994.6,702.9,1989.8,705.3z M1691.4,363
	c-7.2,1.1-11.6,16.5-5.8,16C1691.4,378.5,1697.7,362.1,1691.4,363z M1797.8,267.8c-3.6,2.1-1.5,10.7-4.4,16.4
	c-2.9,5.8-5.3,11.1-7.2,11.1c-1.9,0-12.1,3.9-15,6.8c-2.9,2.9-16.9-2.4-18.8,0c-2,2.4-5.8,5.3-8.2,7.2c-2.4,1.9-9.2,0.5-7.7,6.3
	c1.5,5.8,4.8,11.1,7.7,11.1c2.9,0,6.8-1.9,6.8-7.3c0-5.3,6.8,0,10.1-0.5c3.4-0.5,5.3-3.9,6.8-7.7c1.5-3.9-1.9,1.9,3.9,3.4
	c5.8,1.5,7.7-2.4,7.7-3.9c0-1.4,10.6-3.9,12.6-5.3c1.9-1.4,9.7-3.9,10.2-5.8c0.5-1.9,0-13.1,2.4-14c2.4-1,5.8-1,1.9-7.7
	C1802.7,271.2,1802.7,264.9,1797.8,267.8z M1808.9,248.9c-3.6,0.9-4.8,5.8-4.8,7.3c0,1.4-13.5,4.3-9.2,8.2c4.3,3.9,8.7,1,15.5,0.5
	c6.8-0.5,13.1-2.4,13.1-2.4s10.2,0.5,8.7-4.3c-1.5-4.8-12.1-5.3-14-4.8C1816.2,253.8,1812.8,248,1808.9,248.9z M1322.5,95.2
	c-2.4-0.5-3.9-4.3,2.4-7.7c6.3-3.4,13.1-7.7,20.3-8.7c7.3-1,23.7-1.5,29.5,0c5.8,1.4,14.5-6.3,16.9-9.7c2.4-3.4-7.7-5.8-10.6-1.9
	c-2.9,3.9-16.9,2.9-19.8,1.9c-2.9-1-26.1,3.9-30.9,3.9s-6.8,5.8-13.5,8.7c-6.8,2.9-16,7.3-19.4,8.7c-3.4,1.4-6.8,7.3-3.8,8.2
	c2.9,1,9.2,1.5,14.5,4.4c5.3,2.9,12.9,4.1,16.4,0.5C1327.3,100.5,1324.9,95.7,1322.5,95.2z M960.4,175c-3.9,1.3-2.4,6.3-0.5,8.7
	c1.9,2.4,5.3,7.7,10.2,9.7c4.8,1.9,15,3.9,11.1,5.8c-3.9,1.9-10.7,7.3-11.6,10.1c-1,2.9,8.2,5.8,8.2,5.8s-2.9,3.4-0.5,4.3
	c2.4,1,3.9-3.4,7.7-3.4c3.9,0,11.6,2.4,15.5,2.4c3.9,0,10.1-5.3,9.7-8.7c-0.5-3.4-5.3-8.7-9.7-10.6c-4.4-1.9-9.2-10.6-12.1-12.6
	c-2.9-1.9,2.9-6.8-0.5-10.1c-3.4-3.4-5.8-2.9-9.7-5.3c-3.9-2.4-7.3,0.5-9.7,3.4C966.2,177.4,963.2,174,960.4,175z M955,189.5
	c-4.4,0.7-4.8,5.3-7.7,5.3c-2.9,0-6.3,1-5.3,4.3c1,3.4,2.9,5.8,0,7.3c-2.9,1.4,0.5,7.3,4.3,7.7s8.2-2.4,11.6-3.9
	c3.4-1.5,8.2-4.3,8.2-8.7c0-4.4-1-8.2-2.9-10.2C961.3,189.5,957.9,189,955,189.5z M1070.6,287.1c-1.8,1,2.9,4.3,5.3,5.3
	c2.4,1,4.4,3.9,6.3,4.4c1.9,0.5,8.2,0,6.3-4.8c-1.9-4.8-6.3-4.8-7.7-4.8C1079.3,287.1,1073,285.7,1070.6,287.1z M1013.1,278.9
	c-1.2,1.8,3.9,2.4,4.8,0.5C1018.9,277.5,1016.4,273.6,1013.1,278.9z M1049.8,271.2c-4.6,0-6.8,7.3-3.9,9.7c2.9,2.4,5.8,1.9,8.2-1.5
	C1056.6,276,1052.2,271.2,1049.8,271.2z M1456.9,451.5c-3.1,1.4-5.8,17.9,0,19.8c5.8,2,9.2-7.7,7.3-10.1
	C1462.2,458.8,1461.3,449.6,1456.9,451.5z M1281.4,575.8c-6-1.7-6.8,6.3-11.6,11.6c-4.8,5.3-10.2,9.7-12.1,9.2
	c-2-0.5-12.6,3.4-9.2,10.6c3.4,7.3,2.9,14.5-0.5,17.9c-3.4,3.4,2.9,13.1,2,18.4c-1,5.3,1.4,8.7,8.2,8.7c6.8,0,9.2-2.4,12.1-8.7
	c2.9-6.3,3.4-12.6,6.3-17.9c2.9-5.3,5.3-16.4,6.8-19.3c1.4-2.9,4.4-12.1,3.9-17.4C1286.7,583.5,1284.8,576.7,1281.4,575.8z
	 M576.9,400.3c0,0,5.3,1,8.7,1c3.4,0,5.3,1.9,8.2,3.4c2.9,1.5,8.2-1.9,10.2-1.9c1.9,0,4.3,5.8,4.8-0.5c0.5-6.3-5.8-9.2-9.7-10.2
	c-3.9-1-8.2,0-11.1,0.5C585.1,393,576.9,400.3,576.9,400.3z M620.9,398.2c-4.4,0.8-3.4,9.4,1.9,7.9
	C628.2,404.5,625.3,397.4,620.9,398.2z M557.1,403.6c-4.4,0.8-3.4,9.4,1.9,7.8C564.3,409.8,561.5,402.8,557.1,403.6z M554.7,363.5
	c-4.4,0.5-3.4,5.8,1.9,4.8C561.9,367.4,559,363,554.7,363.5z M519.4,377.1c-0.5,4.8,4.4,3.4,10.2,3.4c5.8,0,16-1,17.9,1.4
	c1.9,2.4,10.6,6.3,13.1,8.2c2.4,1.9,10.2,2.4,10.6,0.5c0.5-1.9-5.3-7.3-8.7-6.8c-3.4,0.5-10.6-3.4-14.5-6.8
	c-3.9-3.4-11.1-3.4-14-3.4C531,373.7,519.4,377.1,519.4,377.1z M585.6,64.1c3.9,2.6,6.1,1,11,1.9c4.8,1,8.7,8.1,11.3,9
	c2.6,1,6.1,0,7.7-1.9c1.6-1.9,3.9-8.7,3.9-8.7s0,6.4,3.9,7.7c3.9,1.3,13.5-1,16.1-0.6c2.6,0.3,17.7,2.3,21.9,4.2
	c4.2,1.9,14.5,3.2,17.4,7.4c2.9,4.2,3.2,18.7,4.8,20.3c1.6,1.6,7.1-5.2,8.4-6.8c1.3-1.6,8.1-0.6,10.3,1.6c2.3,2.3,7.4,7.7,7.1,10
	c-0.3,2.2-1.3,5.8-3.2,4.5c-1.9-1.3-5.1-1-3.9-3.5c1.3-2.6,1.9-8.1-0.6-8.1h-4.8c0,0-4.8-1.3-8.1,3.5c-3.2,4.8-0.7,9.7,1.6,9.7
	c2.2,0,7.4,0,7.4,1.3c0,1.3-5.5,5.2-5.2,7.4c0.3,2.3,4.5,10,5.8,11.6c1.3,1.6,8.1,3.2,10,3.5c1.9,0.3-4.5,0.6-2.9,2.9
	c1.6,2.3,4.2,7.7,7.7,9c3.5,1.3,13.5,7.1,14.8,9.7c1.3,2.6,9-1.9,10.7-2.3c1.6-0.3,1.3,6.8,5.8,7.1c4.5,0.3,6.1-0.6,10-3.5
	c3.9-2.9,2.9-6.8,3.2-9.7c0.3-2.9,0-5.2,4.2-4.2c4.2,1,6.4-0.6,6.1-3.9c-0.3-3.2-3.9-7.1,2.9-8.1c6.8-1,10.3-5.2,14.5-5.2
	c4.2,0,15.8,1.6,17.1,0c1.3-1.6,6.8-9,10.3-9.3c3.6-0.3,12.9-1,21.3-2.3c8.4-1.3,17.4-6.1,20.3-5.8c2.9,0.3,10,0.3,7.7-1.6
	c-2.3-1.9-5.5-6.4-10.3-6.4c-4.8,0-0.3-7.1,1-7.1c1.3,0,7.7,1,7.4,4.2c-0.3,3.2,1.9,7.4,8.4,6.1c6.4-1.3,5.5-6.1,4.2-7.4
	c-1.3-1.3-2.2-4.5-3.5-6.8c-1.3-2.3-1-5.2,5.8-5.8c6.8-0.6,16.1,2.6,15.8-2.6c-0.3-5.2,0-10.6,1.9-13.5c1.9-2.9,6.1-4.8,3.9-5.8
	c-2.3-1-5.2,1.3-7.4-3.5c-2.2-4.8,1.9-8.4,4.5-10.3c2.6-1.9,16.1-14.5,23.5-16.4c7.4-1.9,12.6-9.3,7.4-11
	c-5.1-1.6-15.5-4.5-22.2,0.6c-6.8,5.2-10.6,10-18.4,8.4c-7.7-1.6-6.8,0.6-7.1-8.4c-0.3-9-8.7-25.1-15.5-24.2l-6.8,1
	c0,0-118.6-0.6-122.5,3.2c-3.9,3.9-7.4,13.5-10.9,11c-3.5-2.6-4.2-9-8.7-6.4c-4.5,2.6-0.3,9-4.2,13.5c-3.9,4.5-14.8,3.9-18,2.3
	c-3.2-1.6-6.4-2.9-19.3-2.3c-12.9,0.7-27.1,4.5-24.2,8.4c2.9,3.9-5.8,6.1-8.1,4.2c-2.3-1.9-12.6,2.2-11.9,6.1
	c0.6,3.9-1.6,8.4-7.1,7.4c-5.5-1-9.3,2.3-9.7,5.5c-0.3,3.2-12.6,5.5-13.5,5.5C595.6,60.5,579.8,60.2,585.6,64.1z M869,127.9
	c-1.3,2.2-3.9,2.3-1.3,6.8c2.6,4.5,4.5,7.1,6.8,6.8c2.3-0.3,10-0.6,11,1.9c1,2.6,3.5,4.8,9,3.2c5.5-1.6,10-2.6,11.3-4.5
	c1.3-1.9,10-2.3,10-2.3s7.1-5.5,4.5-7.7c-2.6-2.3-8.7-3.9-11.6-4.2c-2.9-0.3-5.8,2.3-12.2,2.3c-6.4,0-10.6,2.6-13.2,0
	C880.6,127.6,869.9,126.3,869,127.9z M455.7,60.9c-4.1-1-10.9-2.2-10.9-3.2c0-1-1.9,4.5,1.6,6.1c3.5,1.6,9.3,4.5,13.5,6.1
	c4.2,1.6,12.2,1.9,14.8,5.1c2.6,3.2,11.3,5.8,11.3,5.8l10.3,1c0,0,7.1-1.6,14.5-1c7.4,0.6,18.4,1.6,24.5,1.3
	c6.1-0.3,7.1-2.2,7.7-3.5c0.6-1.3-11.3-3.9-14.2-3.5c-2.9,0.3-19.4,0.3-24.2,0c-4.8-0.3-11-0.3-14.8,0c-3.9,0.3-6.8-2.6-9.7-4.2
	c-2.9-1.6-9.3-6.8-13.2-7.4C463.1,62.8,463.8,62.8,455.7,60.9z M453.1,77.3c-1.4,3.4,12.9,5.2,11.3,1.3
	C462.8,74.7,454.7,73.4,453.1,77.3z M454.1,90.8c0.4,0.9,2.9,2.6,7.1,1.9c4.2-0.6,10.3-1.3,13.2-1.6c2.9-0.3,3.6-5.2,0.3-5.5
	c-3.2-0.3-5.8-3.2-8.7-2.3C463.1,84.4,453.1,88.6,454.1,90.8z M417.7,87.9c-2.2,1.4-1,6.1,2.6,6.4c3.5,0.3,9.7-2.2,10.3-0.3
	c0.6,1.9,2.9,10.6,8.7,7.7c5.8-2.9,5.5-5.5,7.1-5.8c1.6-0.3-0.3-7.4-2.9-9c-2.6-1.6-11-0.6-13.2,0.3C428,88.3,421.2,85.7,417.7,87.9
	z M405.8,70.9c-2.4,2.1,0,8.7-1,9.3c-1,0.6,0.3,3.5,2.9,2.9c2.6-0.6,3.9-6.8,5.8-6.8c1.9,0,11.9-2.3,13.5,1.3
	c1.6,3.5,1.6,1.9,6.1,2.3c4.5,0.3,8.1-4.5,8.4-6.1c0.3-1.6-2.3-4.8-8.4-4.2C427,70.2,408.3,68.6,405.8,70.9z M399.3,56
	c-0.5,2.3,2.6,4.2,6.5,4.2c3.9,0,12.3-1.9,12.9-0.3c0.6,1.6-0.3,2.9,4.2,3.5c4.5,0.7,6.4,1.3,9,1.3s1.6-4.2-0.6-7.1
	c-2.3-2.9-1.6-2.6-7.4-4.2c-5.8-1.6-11.6-1.6-15.5-1.3C404.5,52.5,400.3,51.5,399.3,56z M355.8,60.2c-3.7,1.2-2.9,4.8-0.3,4.8
	c2.6,0,9-2.3,11-0.6c1.9,1.6,6.8,0.3,6.4-1.3c-0.3-1.6,1.9-8.1-1.9-8.4C367.1,54.4,361.6,58.3,355.8,60.2z M301,73.4
	c-0.7,2,2.9,1.9,7.1,1.9c4.2,0,11,0,12.9-1c1.9-1,11.6-3.2,11.3-0.3c-0.3,2.9,3.9,7.4,6.1,6.8c2.3-0.6,6.8-4.8,9-3.2
	c2.3,1.6,2.6,5.5,4.8,6.4c2.3,1,8.4,1,11.3,0c2.9-1,11-1,14.5-0.3c3.5,0.7,13.9,2.6,14.8,0.7c1-1.9,3.9-2.3,4.2-4.2
	c0.3-1.9,1.9-8.1,1.9-8.1s-1.9-3.5-5.1-1.9c-3.2,1.6-4.2,2.6-7.1,1.9c-2.9-0.6-2.9-5.8-8.1-4.8c-5.2,1-6.1,3.9-7.7,5.2
	c-1.6,1.3-5.2,2.3-6.4,1.6c-1.3-0.6-8.7-4.8-8.7-4.8s-15.5-0.6-16.1-2.6c-0.7-1.9-3.2-5.2-10.3-4.5c-7.1,0.6-19.3,4.8-21.3,4.8
	c-1.9,0,2.3,3.9-0.3,3.9C305.2,70.9,302,70.5,301,73.4z M541.5,152.1c-5.1,1.5-0.3,5.1,2.9,3.9C547.6,154.7,546,150.8,541.5,152.1z
	 M522.8,149.2c-1.3,1.4,5.8,3.5,7.1,1.6C531.1,148.9,526,145.6,522.8,149.2z M57.1,127.1c-6.8,0.5-15.5,3.9-15.5,3.9
	s2.4,4.4,6.8,7.3c4.4,2.9,15,2.9,15,2.9s7.3,0.5,10.2-1.9c2.9-2.4,6.3-1.9,8.2-1.5c1.9,0.5-1.5,6.8-6.8,6.3
	c-5.3-0.5-11.6,0.5-16,3.9c-4.3,3.4-8.2,3.9-6.3,7.7c1.9,3.9,9.2,8.7,9.7,11.1c0.5,2.4,8.7-1.5,9.7-3.9c1-2.4,5.8-2.4,4.3,2.9
	c-1.4,5.3,4.8,6.3,4.8,6.3c0,0,2.9-4.8,4.4-3.9c1.4,1,6.3,5.3,6.3,5.3s6.3-4.4,8.2-1.5c1.9,2.9-2.9,5.3-5.8,6.8
	c-2.9,1.4-13.5,5.3-16,6.8c-2.4,1.4-11.6,5.8-14,5.8c-2.4,0-3.4,5.8,1,5.3c4.3-0.5,16.4-4.8,19.8-6.3c3.4-1.5,1.9,1.9,10.6-2.4
	c8.7-4.4,14-8.2,16.4-7.7c2.4,0.5,2.9,3.9,6.8,4.8c3.9,1,7.3-2.9,9.7-4.3c2.4-1.4,4.3-7.2,1.9-6.8c-2.4,0.5-8.7,0-8.7,0
	s6.8-3.9,6.8-6.3c0-2.4,1-6.3,4.8-7.7c3.9-1.5,3.9-0.5,1.5,5.3c-2.4,5.8,4.8,3.4,7.7,1c2.9-2.4,4.8-0.5,10.1-3.9
	c5.3-3.4,5.3-5.3,8.2-5.3c2.9,0,8.2,5.3,11.1,3.4c2.9-1.9,11.1,2.4,16,2.4c4.8,0,20.3,6.3,23.2,6.3c2.9,0,11.6,3.4,12.1,9.7
	c0.5,6.3,3.4,5.8,6.3,5.8c2.9,0,9.7,2.4,9.7,4.8c0,2.4-1.9,12.1,2.9,14.5c4.8,2.4,9.2,6.3,11.1,5.3c1.9-1,0-8.7-2.4-9.7
	c-2.4-1-1-4.4-1.9-6.3c-1-1.9,2.9-1.9,4.3,1.5c1.5,3.4,5.3,9.7,7.7,9.7c2.4,0,7.7,5.8,6.3,9.2c-1.4,3.4,1.5,8.2,5.8,8.2
	c4.3,0,9.7,6.8,11.6,7.3c1.9,0.5,4.3,2.9,4.3,4.3c0,1.4,2.4,9.7,2.4,13.1c0,3.4-1.5,16.9-1.9,22.2c-0.5,5.3,3.9,14.5,8.7,19.3
	c4.8,4.8,9.2,14,12.1,16c2.9,1.9,4.8,7.2,9.2,6.8c4.3-0.5,7.2,2.9,11.1,9.7c3.9,6.8,7.7,17.9,10.6,18.9c2.9,1,7.7,4.3,5.3,6.8
	c-2.4,2.4-6.3,7.7-1.9,7.7c4.3,0,5.8-2.4,9.2,1.9c3.4,4.3,7.7,6.8,7.3,9.7c-0.5,2.9,3.9,3.9,5.8,4.3c1.9,0.5,6.3,9.2,10.6,5.3
	c4.3-3.9-5.8-9.7-8.7-12.1c-2.9-2.4,0-7.7-6.8-13c-6.8-5.3-5.8-9.2-10.6-13.1c-4.8-3.9-8.7-7.2-3.9-10.6c4.8-3.4,5.3,3.4,7.2,7.7
	c1.9,4.3,12.1,13.1,16.4,16.9c4.4,3.9,12.1,17.4,14.5,17.4c2.4,0,9.2,7.7,9.2,7.7s3.9,6.3,2.4,8.2c-1.4,1.9,1.9,9.2,5.3,11.1
	c3.4,1.9,16.9,8.2,18.9,9.2c1.9,1,5.8,8.2,11.1,8.2s9.2,0.5,10.6,1.9c1.4,1.5,5.8,7.3,8.7,3.9c2.9-3.4,3.4-4.8,7.7-4.8
	c4.3,0,6.3,3.4,8.7,5.8c2.4,2.4,9.2,8.7,12.6,8.2c3.4-0.5,7.7,3.9,10.2,2.4c2.4-1.4,6.3,1,8.2,1.9c1.9,1,8.7,4.3,8.2,10.1
	c-0.5,5.8,3.9,7.2,6.8,8.7c2.9,1.4,6.8,4.8,9.2,7.3c2.4,2.4,7.7,2.9,9.2,4.3c1.4,1.4,2.4,4.3,6.8,1.9c4.4-2.4,3.4-6.8,3.4-6.8
	s4.8-1,7.2,1c2.4,1.9,3.9,8.2,5.3,9.2c1.5,1,4.3,8.2,2.4,13.5c-1.9,5.3-1.5,10.7-3.4,10.7c-1.9,0-4.3,6.3-7.2,7.7
	c-2.9,1.4-10.6,8.2-10.2,10.6c0.5,2.4,4.8,9.7,3.9,13c-1,3.4-7.2,7.3-5.8,12.6c1.5,5.3,11.6,6.8,12.1,11.6
	c0.5,4.8,7.7,15.5,8.7,20.3c1,4.8,9.2,10.1,9.2,16.9c0,6.8,11.6,11.1,14,11.6c2.4,0.5,6.8,4.8,10.2,6.3c3.4,1.4,6.3,4.3,8.7,8.2
	c2.4,3.9,1.9,9.7,1.9,11.1c0,1.4-1.4,16.4-2.9,25.1c-1.4,8.7,1.9,15.5-1,17.9c-2.9,2.4-6.8,4.9-3.9,7.7c2.9,2.9-3.4,4.9-3.4,6.3
	c0,1.5,3.9,9.2,1.9,12.6c-1.9,3.4-3.4,8.2-4.8,11.1c-1.4,2.9-4.8,5.8-3.9,10.2c1,4.3-3.9,2.9-3.9,7.2s4.3,2.4,3.4,7.7
	c-1,5.3-3.4,6.8-3.4,10.6c0,3.9,2.4,9.2,2.4,10.6c0,1.5-2.4,6.3-5.8,10.2c-3.4,3.9-5.8,6.3-5.3,8.7c0.5,2.4,3.9,5.3,3.4,6.8
	c-0.5,1.5-4.8,6.3-4.4,9.7c0.5,3.4,4.8,1.9,5.8,4.3c1,2.4-5.8,4.4-2.9,6.8c2.9,2.4,6.8,1.9,5.8,7.7s5.3,7.3,6.8,8.7
	c1.5,1.4,4.3,4.8,6.8,4.8c2.4,0,4.3-1.5,5.3-6.8c1-5.3,7.7-1,2.9,2.9c-4.8,3.9-7.3,5.8-5.8,5.8s8.7,3.9,12.6,3.9
	c3.9,0,11.6-1.9,13.1-2.4c1.5-0.5,12.1-1.9,13.1-3.4c1-1.5-8.2-1-12.6-2.4c-4.3-1.4-12.1-8.7-13-11.6c-1-2.9-1-8.7,2.4-10.6
	c3.4-1.9,11.6-8.7,13.5-10.2c1.9-1.4,4.8-8.2,3.4-9.2c-1.4-1-8.7,0-9.7-1.4c-1-1.5-1-3.4,3.9-6.8c4.8-3.4,7.3-8.2,9.2-9.7
	c1.9-1.5,5.8-4.4,7.3-7.7c1.5-3.4-1.5-1.4-4.3-1.4c-2.9,0-4.4-5.3-4.4-7.8c0-2.4,7.2,1,12.6,1.9c5.3,1,2.9-2.4,2.4-5.3
	c-0.5-2.9,1-7.7,3.9-6.3c2.9,1.4,17.9-0.5,19.8-1c1.9-0.5,7.3-9.2,9.2-11.6c1.9-2.4,2.4-4.8,0-6.3c-2.4-1.4-5.3-6.8-6.3-8.2
	c-1-1.5-1.5-10.2-0.5-12.6c1-2.4,0,14,6.8,16c6.8,1.9,10.6,2.9,16.9-2.9c6.3-5.8,11.1-9.7,11.6-13.5c0.5-3.9,1.9-7.7,4.3-9.2
	c2.4-1.4,3.9,3.9,6.8-2.4c2.9-6.3,5.8-5.8,8.7-11.1c2.9-5.3-4.8-12.1,1-16c5.8-3.9,15.9-8.7,15.9-8.7s2.9-1.5,8.7-2.9
	c5.8-1.5,12.1-0.5,14-3.4c1.9-2.9,3.9-9.2,6.8-12.6c2.9-3.4,6.3-8.7,4.8-11.1c-1.5-2.4,3.9-13,3.4-15.9c-0.5-2.9-4.8-9.7,2.4-15.5
	c7.3-5.8,15-14.5,15.5-16.9c0.5-2.4,6.3-12.6,5.8-17.4c-0.5-4.8-5.8-10.6-9.2-12.1c-3.4-1.5-10.6-1.9-13.5-5.8
	c-2.9-3.9-11.1-7.7-14-6.8c-2.9,1-7.7,1.9-11.6-0.5c-3.9-2.4-10.1-5.3-12.6-7.2c-2.4-1.9-8.7-3.4-11.6-3.4c-2.9,0-2.4-1.9-6.8,3.9
	c-4.3,5.8,0,7.7-7.7,6.8c-7.7-1,1-1.4,5.3-7.2c4.3-5.8-0.5-9.2-5.3-7.7c-4.8,1.4-1.4,4.3-9.2,5.8c-7.7,1.5-7.7-3.4-2.9-4.4
	c4.8-1,13.5-5.3,13.5-7.3c0-1.9-1-7.2-4.8-7.2c-3.9,0-2.9-4.8-8.7-11.1c-5.8-6.3-13.1-10.2-18.9-9.2c-5.8,1-10.1,2.4-13-2.9
	c-2.9-5.3-6.3-6.3-8.2-9.2c-1.9-2.9-6.8,0-8.2-1.4l-1.4-1.5c0,0-6.3,1.5-2.9-2.9c3.4-4.4,4.8-12.6,3.4-12.1
	c-1.5,0.5-3.9,7.3-6.3,6.8c-2.4-0.5-0.5-1.5-5.3-4.4c-4.8-2.9-12.6-0.5-12.6,1.9c0,2.4-2.4,4.3-2.4,4.3s-1.5-1.4-2.9-4.3
	c-1.5-2.9-8.2-3.4-11.6-0.5c-3.4,2.9-5.3-7.3-7.7-7.3c-2.4,0-7.3,2.4-9.7,6.8c-2.4,4.3-1.4,10.6-3.4,10.2c-1.9-0.5-2.4-8.7-1.9-11.6
	c0.5-2.9,5.8-7.7,1.9-8.7c-3.9-1-9.7,4.8-12.1,5.3c-2.4,0.5-7.3,3.9-10.2,7.7c-2.9,3.9-4.4,6.3-7.3,7.7c-2.9,1.5-7.2,0-6.3-1.4
	c1-1.5-8.2-6.8-9.7-4.8c-1.4,1.9-5.8,3.4-10.2,5.3c-4.3,1.9-8.2-2.4-9.2-4.4c-1-1.9-2.9-2.4-3.4-8.7c-0.5-6.3,1-13,2.4-16.9
	c1.5-3.9-7.2-11.6-10.6-11.1c-3.4,0.5-6.8,3.9-10.2,3.4c-3.4-0.5-1.9-1.4-7.3-1.4c-5.3,0-1-1,0-5.3c1-4.3-1.9-10.2,3.4-14
	c5.3-3.9,3.4-13.1,0-13.5c-3.4-0.5-9.7,1.4-14,1c-4.3-0.5-7.7,3.4-6.3,7.7c1.5,4.3-2.4,7.3-3.9,6.8c-1.5-0.5-3.4-2.9-8.7,1
	c-5.3,3.9-7.3,2.4-12.6-1.9c-5.3-4.4-11.1-8.7-12.1-15.5c-1-6.8-1.4-13.5,0.5-17.4c1.9-3.9,1.9-10.6-1-11.6c-2.9-1,3.4-5.8,6.8-6.8
	c3.4-1,8.7-5.3,9.7-7.3c1-1.9,5.8-1.4,11.1-1.4c5.3,0,6.3,0,11.6,2.9c5.3,2.9,6.3-1.5,6.3-2.9c0-1.5,1.9-4.3,7.7-3.9
	c5.8,0.5,14-1.9,15.5-0.5c1.4,1.5,4.3,7.3,7.2,5.3c2.9-1.9,3.9-5.3,4.8,0.5c1,5.8,3.4,14.5,7.7,16c4.3,1.5,1.9,7.2,6.3,7.7
	c4.3,0.5,6.3-9.2,4.8-12.6c-1.5-3.4-4.3-13.5-6.8-16c-2.4-2.4-2.4-8.7,2.4-10.6c4.8-1.9,16.4-11.6,19.8-14.5
	c3.4-2.9,12.6-5.3,9.7-9.2c-2.9-3.9-3.9-6.3-3.9-9.2c0-2.9,2.9-1.9,4.4,0c1.4,1.9,7.2-2.9,5.8-5.3c-1.4-2.4-1-5.8,2.4-5.3
	c3.4,0.5,4.3-2.4,2.9-4.4c-1.5-1.9,3.4-4.4,6.8-3.4c3.4,1,12.1-0.5,13.5-2.4c1.4-1.9-2.9-3.9-2.9-7.7c0-3.9,5.8-7.2,9.2-7.7
	c3.4-0.5,7.7,0,8.2-1.4c0.5-1.5,5.3-5.3,5.8-1.9c0.5,3.4,0,9.2,3.9,9.2c3.9,0,8.7-4.3,10.2-4.8c1.4-0.5,10.6-2.4,12.6-2.9
	c1.9-0.5,13.5-1.4,12.1-4.8c-1.4-3.4-2.9-6.8-4.4-8.2c-1.4-1.5-2.9,0.5-4.8,2.9c-1.9,2.4-5.3,2.4-6.3,0.5c-1-1.9,0.5-7.7-2.9-5.8
	c-3.4,1.9-3.9,3.9-5.8,2.9c-1.9-1-3.9-4.4-3.9-4.4s4.8-2.4,1.4-6.8c-3.4-4.3-8.2-3.4-13.1-1c-4.8,2.4-4.3,1.9-10.1,3.4
	c-5.8,1.4-8.7,2.9-8.7,2.9s7.7-4.8,11.1-7.7c3.4-2.9,7.7-4.3,10.6-7.3c2.9-2.9,10.6,1.5,10.6,1.5s3.9-3.9,3.9-1.5
	c0,2.4-1,8.7,1.9,8.7c2.9,0,11.1-3.9,7.7-4.9c-3.4-1,4.8,0,8.2-2.4c3.4-2.4,7.3-2.4,9.2-3.4c1.9-1,3.4-5.3,6.8-5.3
	c3.4,0,4.8,4.3,0,7.2c-4.8,2.9-5.3,10.2-7.7,12.1c-2.4,1.9-1,4.3,2.9,3.9c3.9-0.5,7.3,0.5,10.6-0.5c3.4-1,5.3,1,6.3,2.4
	c1,1.5,3.9-1.5,3.9-1.5s6.3-1.4,8.2,1c1.9,2.4,3.4-1.5,1.9-3.9c-1.5-2.4-3.4-4.8-4.8-7.7c-1.5-2.9-3.4-3.9-7.3-2.9
	c-3.9,1-4.8-1-7.3-2.4c-2.4-1.4-4.3,1.9-2.4-1.4c1.9-3.4,2.9-4.3,4.3-7.3c1.4-2.9,7.7-8.2,1.4-9.7c-6.3-1.4-8.2-2.4-9.2-5.3
	c-1-2.9-8.2-8.2-10.2-8.2c-1.9,0-8.7,0-9.2-2.4c-0.5-2.4-5.3-7.7-7.7-10.1c-2.4-2.4-11.6-13.1-13.1-14c-1.4-1-3.4-0.5-7.7,5.3
	c-4.4,5.8-8.2,6.8-11.6,5.3c-3.4-1.5-3.9-1-7.2-4.8c-3.4-3.9,3.4-4.4,1.9-6.8c-1.5-2.4-9.2-3.4-14-3.9c-4.8-0.5-8.2-5.8-15.5-6.3
	c-7.3-0.5-16,1-18.4,1c-2.4,0-2.4,3.4-3.4,8.7c-1,5.3,3.4,6.8-1,7.7c-4.3,1-6.3,1.4-1.9,3.4c4.3,1.9,10.1,9.7,10.1,9.7
	s0,4.4-3.4,6.8c-3.4,2.4-6.8,4.8-8.7,1.9c-1.9-2.9-7.3-2.4-5.8,0.5c1.4,2.9,4.4,4.4,4.4,7.3c0,2.9,4.3,10.2,1.4,12.6
	c-2.9,2.4-6.3,0.5-8.7,1c-2.4,0.5-4.8-3.9-2.9-4.8c1.9-1-0.5-8.2-0.5-8.2s-5.8,8.2-5.3,3.9c0.5-4.4-2.4-4.8-2.4-8.2
	c0-3.4-2.9-4.8-7.3-3.9c-4.4,1-9.7-1.5-17.9-2.9c-8.2-1.4-11.6-2.4-18.4-5.8c-6.8-3.4-9.2-1-12.6-0.5c-3.4,0.5-1.9-6.8-6.3-7.7
	c-4.3-1-6.8,1-7.7-5.3c-1-6.3,1.4-7.7,12.1-14.5c10.6-6.8,9.2-9.7,17.4-10.6c8.2-1,12.1,1,12.1-1.5c0-2.4,1.9-12.1,1.9-7.3
	c0,4.8,9.7,5.3,5.3,8.7c-4.4,3.4-1.9,3.9,1.5,3.9c3.4,0,9.7-3.4,9.7-3.4s7.7-3.4,9.7-0.5c1.9,2.9,1.9,5.8,5.3,5.8
	c3.4,0,10.6-3.9,4.4-7.3c-6.3-3.4-10.2-2.9-14-6.8c-3.9-3.9-2.9-2.4-7.2-1.5c-4.4,1-4.4-1.5-5.8-1.5c-1.4,0-3.9,1-4.8-1
	c-1-1.9,0.5-2.4,5.3-2.4c4.8,0,10.6,1.5,10.6,1.5s5.8-1.9,7.3-2.4c1.4-0.5,9.2-1.5,7.7-5.8c-1.4-4.3-6.3-4.3-7.7-5.8
	c-1.5-1.5,2.9-3.4,5.3-4.4c2.4-1,9.2,0,9.2,0s4.3,0.5,4.3-1.5c0-1.9-1-4.4,1.9-2.9c2.9,1.4,0,5.8,4.3,4.8c4.3-1,5.3,0,7.7,1.5
	c2.4,1.5-0.5,7.3-2.9,8.2c-2.4,1-6.3,2.9-1,3.4c5.3,0.5,9.2,0.5,9.2,0.5s3.4-3.4,4.8-6.3c1.4-2.9,3.9-1,5.8,0c1.9,1,9.2,2.4,2.4,4.3
	c-6.8,1.9-8.2,4.3-9.7,6.8c-1.5,2.4-1.9,3.9-8.2,2.4c-6.3-1.5-9.7-1-11.1,1.5c-1.4,2.4-0.5,10.2,1.9,9.2c2.4-1,4.8-1,7.7-1.9
	c2.9-1,14.5,1,17.4,0.5c2.9-0.5,7.7,4.8,9.2,3.9c1.5-1,4.4,1.9,7.3,3.9c2.9,1.9,1.9-4.3,7.2-0.5c5.3,3.9,2.4,3.9,5.3,3.9
	c2.9,0,9.2,0.5,9.2,0.5s0.5-4.8,5.3-3.9c4.8,1,9.2,6.3,8.7,2.4c-0.5-3.9,0.5-6.8-3.4-9.7c-3.9-2.9-10.2-4.8-11.1-6.3
	c-1-1.4-1.9-3.4-0.5-4.4c1.4-1,8.2,0.5,12.1,2.9c3.9,2.4,7.3,4.8,10.2,2.9c2.9-1.9,6.3-2.9,7.7-4.4c1.5-1.5,4.8-5.8,4.8-5.8
	s-14.5-1.9-16.4-4.3c-1.9-2.4-8.7-5.8-10.6-5.8c-1.9,0-7.2,3.4-9.2-1.5c-1.9-4.8-1.9-10.6-3.9-11.1c-1.9-0.5-22.2-3.4-25.1-4.8
	c-2.9-1.4-14.5-4.8-18.9-7.2c-4.4-2.4-10.6-5.8-14.5-5.8c-3.9,0-19.8,1.9-22.7,1.4c-2.9-0.5-11.6,1-15,1.4c-3.4,0.5,4.4,6.8-2.9,8.2
	c-7.2,1.5-6.3,2.4-4.8-4.8c1.4-7.3-4.8-9.2-11.1-6.3c-6.3,2.9-16.4,4.8-14,8.2c2.4,3.4-0.5,5.8,4.4,9.2c4.8,3.4,6.8,4.3,13,3.9
	c6.3-0.5,12.6,1,12.6,1s0,5.8-2.4,6.8c-2.4,1-6.3,1-7.3,3.9c-1,2.9-5.8,4.4-5.8,2.9c0-1.5,2.4-6.3-1-8.7c-3.4-2.4-4.4-2.9-8.2-0.5
	c-3.9,2.4-4.3,3.4-6.3-0.5c-1.9-3.9-7.7-7.3-7.7-7.3s-3.9-4.8-6.8-7.2c-2.9-2.4-8.2-1.9-8.7,0.5c-0.5,2.4,1,4.8,2.9,9.2
	c1.9,4.4,3.9,12.6,0.5,13.1c-3.4,0.5-3.9,1-7.3,1.9c-3.4,1-4.8-1.5-4.8-5.3c0-3.9-1.5-7.3-0.5-8.7c1-1.5-3.9,1-8.7,0
	c-4.8-1-8.7,1.9-3.9,3.4c4.8,1.5,5.8,7.3,1.4,8.7c-4.3,1.5-20.8,0-26.1,0c-5.3,0-13,1.5-14.5-1.5c-1.5-2.9,4.3-4.8,7.7-4.8
	c3.4,0,13.5,0.5,17.4-4.8c3.9-5.3-4.8-6.3-8.7-6.3c-3.9,0-6.8-1.4-11.1-5.8c-4.3-4.4,2.9-7.3,1.9-9.2c-1-1.9-5.8-0.5-10.2-0.5
	c-4.4,0-11.1-3.4-11.1,0.5c0,3.9,5.3,15,1.9,12.6c-3.4-2.4-2.9-5.8-5.3-8.7c-2.4-2.9-6.3-2.4-11.1-1.9c-4.8,0.5-13,1.9-15.5,1.5
	c-2.4-0.5-0.5-0.5-5.8-2.9c-5.3-2.4-7.7-1.9-11.6-4.3c-3.9-2.4-0.5-3.4-7.3-3.9c-6.8-0.5-6.3,3.4-13.1,2.4c-6.8-1-8.7,0.5-15.5,0
	c-6.8-0.5-10.2-1-11.1,2.4c-1,3.4-2.9,9.2-5.8,9.2c-2.9,0-6.3,3.4,2.9,3.9c9.2,0.5,3.9,4.8,12.1,4.3c8.2-0.5,15.5-0.5,17.4-4.3
	c1.9-3.9,3.4-3.9,4.3-2.4c1,1.5,8.2,10.2,8.2,10.2s4.8,3.9,6.8,4.8c1.9,1-1.9,5.3-5.8,2.9c-3.9-2.4-11.1-1.9-14-4.3
	c-2.9-2.4-16-2.4-19.3-1.9c-3.4,0.5-9.2-1.4-11.1-1.4c-1.9,0-8.2,4.8-8.2,4.8s-2.4-3.9-3.9-5.8c-1.5-1.9-3.9,1.9-5.8,2.4
	c-1.9,0.5-7.7-3.9-13.6-1.9c-5.8,1.9-3.9,3.9-12.1,3.4c-8.2-0.5-10.2-1.9-13.1-1.5l-2.9,0.5c0,0,0.5,1.9-2.9,3.9
	c-3.4,1.9-5.8,4.4-8.2,1.5c-2.4-2.9-3.9-2.9-5.3-3.4c-1.5-0.5-4.3-2.9-10.6-1.5c-6.3,1.5-16-1.9-17.9-1.9c-1.9,0-19.4-1-23.2-1.9
	c-3.9-1-14-1-17.9-0.5c-3.9,0.5-13.5,0.5-13.5,0.5s-7.3-4.8-8.7-4.8c-1.4,0-6.8,2.4-9.2,0c-2.4-2.4-6.8-3.9-6.8-3.9
	s-1.9,5.3-5.3,6.3c-3.4,1-10.6,2.9-12.1,1.9c-1.4-1-14,3.9-14,3.9s-7.7,6.3-9.7,5.8c-1.9-0.5-9.7-1.4-8.7,0.5c1,1.9,0,5.8,7.7,5.8
	c7.7,0,8.2,2.9,11.1,3.4c2.9,0.5,3.9,0,7.3,2.9c3.4,2.9,3.4,5.8-1,5.3c-4.3-0.5-9.2-1.5-12.1-3.9l-2.9-2.4L57.1,127.1z M45.5,164.3
	c-2,0.6,3.4,3.9,5.3,3.9c1.9,0,5.3-5.3,1.5-5.3C48.4,162.9,50.4,162.9,45.5,164.3z M13.6,206.4c-5.8-0.5-11.6,0-12.6,1.9
	c-1,1.9,5.3,3.4,9.2,3.4s11.6-2.4,10.2-2.9C18.9,208.3,13.6,206.4,13.6,206.4z M50.4,205.4c-1,1.5-9.7,2.9-13.5,1.9
	c-3.9-1,1.9-3.4,6.8-4.4c4.8-1,2.4-8.9,7.3-7.2C52.3,196.2,51.3,204,50.4,205.4z M1804.9,203.1c-1.4-4.1-4.4-6.8-8.1-6.4
	c-4.4,0.5-6.8,2.9-11.1,2.9c-4.3,0-1-6.8-2.9-6.8c-2,0-6.3,6.3-8.7,2.9c-2.4-3.4,6.8-7.7,14-10.2c7.3-2.4,19.4-16.4,24.2-16.9
	c4.8-0.5,16.9,1,27.6,0.5c10.6-0.5,14-4.8,17.4-2.4c3.4,2.4,10.6,5.3,15,4.8c4.4-0.5,2.4,0,9.2-4.8c6.8-4.8,13-7.3,16.4-11.1
	c3.4-3.9,12.6-6.8,13.1-2.9c0.5,3.9-1,7.7,2.9,7.7c3.9,0,9.7-3.9,14.5-5.8c4.8-1.9,8.7-4.3,8.7-4.3s-19.8,13.5-24.7,16.4
	c-4.8,2.9-16.4,4.8-21.3,10.6c-4.8,5.8-7.7,7.7-7.2,14c0.5,6.3,8.7,14.5,4.8,20.3c-3.9,5.8-5.3,14-5.3,14c0,0,5.8-8.2,14-13.5
	c8.2-5.3,13-12.6,16-15.5c2.9-2.9,11.6-3.4,11.6-6.8c0-3.4,2.4-7.7,3.9-11.6c1.5-3.9-2.9-2.9,0-7.7c2.9-4.8,2.4-8.7,16.9-8.7
	c14.5,0,9.7,1,21.3,0.5c11.6-0.5,15.9-6.3,27.1-9.2c11.1-2.9,19.8-4.8,23.2-3.4c3.4,1.4,8.7,0.5,5.3-2.9c-3.4-3.4-11.1-8.2-7.3-9.2
	c3.9-1,7.7-1.4,9.2-5.3c1.4-3.9-5.3-10.6-1.5-14.5c3.9-3.9-2.9-8.7-7.7-9.7c-4.9-1-23.7,1-27.6-1c-3.9-1.9-10.1-4.3-12.1-2.9
	c-1.9,1.4-6.3,9.2-6.3,9.2s-3.4,1-6.3-3.4c-2.9-4.4-18.8-3.9-23.7-3.9c-4.8,0-10.2,1-15.5,1.5c-5.3,0.5-8.2,1.9-12.1-1.5
	c-3.9-3.4-9.2-4.8-11.1-6.3c-1.9-1.5-12.6-1.5-20.8-0.5c-8.2,1-16.4,1-16.4,1s-3.9-1.4-9.7-4.8c-5.8-3.4-11.6-5.8-13.6-5.8
	c-1.9,0-16.9,2.4-20.3,0c-3.4-2.4-6.8-3.9-9.2-3.9c-2.4,0-4.4-3.9-1.5-3.9c2.9,0,16.4-3.9,16.4-3.9s-3.9-5.3-8.7-5.3
	s-13.5-2.4-15.9-2.4c-2.4,0-0.5,2.4-5.3,1.5c-4.8-1-9.7-2.9-12.6-1c-2.9,1.9-9.7,4.8-2.4,6.8c7.2,1.9,14,0,16,2.9
	c1.9,2.9,0,4.3,0,6.3c0,1.9-3.9,7.3-6.3,8.2c-2.4,1-5.3-1.4-10.2,1c-4.8,2.4-16.9,0.5-18.4,1.9c-1.5,1.4-4.3-3.9-6.8-2.9
	c-2.4,1-8.7,7.3-12.1,6.8c-3.4-0.5-7.7-3.9-7.7-7.7c0-3.9-1.4-8.7-2.9-9.7c-1.5-1-12.1-1.4-16-1c-3.9,0.5-15.9,1.4-17.9,3.4
	c-1.9,1.9-7.3,3.4-10.6,3.4c-3.4,0-6.3-3.4-13.5-4.4c-7.2-1-23.2-1.5-25.1-1c-2,0.5-8.2-1-5.8-2.9c2.4-1.9,9.7-8.2,5.3-11.1
	c-4.3-2.9-14-2.9-18.4-3.4c-4.3-0.5-8.7-1.4-15.5-0.5c-6.8,1-8.2,4.4-11.1,1.5c-2.9-2.9,7.2,1.5-2.9-2.9c-10.2-4.3-15-3.9-17.9-2.4
	c-2.9,1.5,0.5,1-7.2,3.9c-7.7,2.9-12.1,4.4-14,4.9c-1.9,0.5-14-2.4-15.4-3.4c-1.5-1-6.8,0.5-11.6,2.4c-4.9,1.9-8.2,4.8-13.1,3.9
	c-4.8-1-12.6-1-17.4,1c-4.8,1.9-8.2,1.9-13.1,5.3c-4.8,3.4-14,5.3-14,5.3s-8.2-0.5-12.6-0.5c-4.4,0-10.2,0-6.3,3.4
	c3.9,3.4,15.5,6.8,16.9,8.7c1.5,1.9,3.4,7.7,1,9.2c-2.4,1.5-6.3,1-6.8-3.4c-0.5-4.4-1-4.8-6.8-6.8c-5.8-1.9-5.3-0.5-10.2-4.8
	c-4.8-4.4-10.1-3.9-12.6-1c-2.4,2.9-1,8.7-3.9,9.2c-2.9,0.5-6.3,2.4-6.8-1.9c-0.5-4.3-0.5-12.6-3.9-7.7c-3.4,4.8-4.8,4.8-4.8,7.3
	c0,2.4,2.9,4.8,1.9,9.2c-1,4.4-1,7.3,0.5,7.3c1.4,0,4.8-4.4,9.2-5.3c4.4-1,12.1-3.4,12.6,1c0.5,4.4,5.3,5.8,0.5,7.7
	c-4.8,1.9-10.2,1-11.1-1.9c-1-2.9-4.3-2.9-7.7-0.5c-3.4,2.4-10.6,11.1-10.6,11.1s-11.6,5.3-13,4.3c-1.5-1,3.9-6.3,7.7-8.7
	c3.9-2.4,6.8-7.7,5.3-9.2c-1.4-1.4-3.4-10.6-2.4-13.1c1-2.4,5.3-5.8,0.5-8.2c-4.9-2.4-8.2-5.3-12.1-6.8c-3.9-1.4-8.2,5.8-11.6,7.7
	c-3.4,1.9-2.9,4.3-7.3,4.8c-4.3,0.5-7.2,6.3,0,9.7c7.3,3.4,9.7,5.8,7.8,7.7c-1.9,1.9-10.2-1-10.2-1s-6.3-2.9-10.2-2.9
	c-3.9,0-8.7-2.4-12.6-2.9c-3.9-0.5-11.6-0.5-13.5,1.4c-1.9,1.9-6.8,7.7-10.6,5.8c-3.9-1.9-3.9-3.9-9.2-1.9
	c-5.3,1.9-10.6-1.5-13.5,1.4c-2.9,2.9-0.5,2.9-9.7,0c-9.2-2.9-7.2,1.9-15.9,3.4c-8.7,1.5-14-1.4-16.4,1.5c-2.4,2.9-5.8,8.2-7.2,4.8
	c-1.4-3.4,4.8-9.2,2.4-11.1c-2.4-1.9-12.6-1-14,0.5c-1.5,1.5-0.5,6.8,0.5,8.7c1,1.9,2.4,9.6-0.5,8.2c-2.9-1.5-2.4-6.3-5.3-5.8
	c-2.9,0.5-6.3,1.9-7.7,2.9c-1.5,1-7.3,1-8.7,2.9c-1.4,1.9,0.5,7.3-1.9,7.7c-2.4,0.5-4.3,2.4-9.6-1c-5.3-3.4-5.3-1.4-6.8-0.5
	c-1.5,1-8.2,4.8-8.7,0.5c-0.5-4.3,1-5.8-3.4-8.7c-4.3-2.9-1-2.9,4.8-1c5.8,1.9,13,2.9,23.7-0.5c10.7-3.4,15-4.8,10.7-6.8
	c-4.4-1.9-8.7-3.9-15.5-4.8c-6.8-1-15.9-1-26.6-4.8c-10.7-3.9-13.1-5.3-17.4-6.3c-4.3-1-31-5.3-43-3.4
	c-12.1,1.9-45.5,10.6-47.4,12.1c-1.9,1.4-4.8,7.3-11.1,12.1c-6.3,4.8-17.9,16-27.1,17.9c-9.2,1.9-19.8,9.7-19.8,11.6
	c0,1.9,3.9,9.2,2.9,10.6c-1,1.5,1.9,8.7,7.2,10.6c5.3,1.9,14.5,1.4,15-1.5c0.5-2.9,7.7-9.2,8.2-4.8c0.5,4.4,5.3,11.1,4.3,14
	c-1,2.9,0,5.8,3.4,5.3c3.4-0.5,21.3-4.3,21.3-4.3s5.8-2.4,4.8-6.3c-1-3.9,6.3-9.2,7.7-10.6c1.5-1.4,6.8-7.3,0.5-9.2
	c-6.3-1.9-11.1-2.4-4.4-8.2c6.8-5.8,11.1,0,19.8-8.7c8.7-8.7-1.9-11.1,7.3-11.6c9.2-0.5,18.9-1,16.9,1.9c-1.9,2.9-13,9.2-19.3,12.1
	c-6.3,2.9-5.3,8.2-2.9,11.1c2.4,2.9,3.4,9.7,7.7,8.7c4.4-1,9.7-4.4,14.5-3.9c4.8,0.5,14.5-0.5,16-0.5c1.5,0,8.2,6.8,4.4,7.7
	c-3.9,1-8.7,0.5-16.9,1c-8.2,0.5-17.4,0.5-17.4,1.9c0,1.5,11.1,4.8,7.2,7.3c-3.9,2.4-7.7-0.5-12.6-1c-4.8-0.5-7.7,6.3-9.2,10.2
	c-1.4,3.9,2.4,10.6-4.8,8.2c-7.2-2.4-12.6-2.4-14.5-1.4c-1.9,1-7.7,2.9-12.6,4.3c-4.8,1.5-2.9-2.4-9.2-2.4h-6.3l-3.9,0.5
	c0,0-3.9-2.4-4.4-6.3c-0.5-3.9,1.9-8.2-0.5-9.2c-2.4-1-11.1,0.5-12.6,3.4c-1.5,2.9-2.9,8.2-1,10.6c1.9,2.4,7.7,7.2,2.4,5.8
	c-5.3-1.5-12.1-1.9-16,1c-3.9,2.9-10.6,9.2-10.6,9.2s-12.1,1-12.1,3.9c0,2.9,0,6.8-4.3,7.3c-4.3,0.5-10.2,1.9-16,2.9
	c-5.8,1-5.3,3.4-12.1,3.9c-6.8,0.5-7.7,3.4-1.4,4.4c6.3,1,15.9,4.8,16.4,9.2c0.5,4.4-0.5,9.2-2.9,13.5c-1.7,3-11.6,1-17.4,1
	c-5.8,0-17.4-1.9-22.2,0c-4.8,1.9-3.9,11.6-2.4,15.9c1.4,4.4-0.5,6.8-2.4,8.2c-1.9,1.4-2.4,5.8,0,7.7c2.4,1.9,4.4,6.3,6.3,6.8
	c1.9,0.5,8.2-1.5,10.6,1c2.4,2.4,4.8,8.2,6.3,6.8c1.5-1.5,3.4-7.7,5.8-6.3c2.4,1.5,8.2-0.5,12.6-1c4.3-0.5,6.8-5.3,11.1-7.7
	c4.3-2.4,1.9-2.4,0.5-5.3c-1.5-2.9,4.4-6.3,7.8-9.7c3.4-3.4,9.7-0.5,11.1-4.4c1.5-3.9,1.9-10.6,5.8-10.2c3.9,0.5,9.2,2.9,12.6,2.9
	c3.4,0,10.6-5.3,12.6-6.3c1.9-1,9.2-0.5,10.2,3.9c1,4.3,9.2,9.7,11.1,10.6c1.9,1,14.5,4.8,16.4,6.3c1.9,1.5,4.8,5.8,5.8,9.7
	c1,3.9,4.4,3.9,4.8,0.5c0.5-3.4-2.4-9.7,1-9.2c3.4,0.5,7.3-1,7.3-1s-9.2-6.3-12.6-7.7c-3.4-1.5-9.7-4.3-12.6-9.2
	c-2.9-4.8-10.2-5.8-9.7-10.6c0.5-4.8,7.3-1.9,11.1,1.9c3.9,3.9,13.5,9.2,16.9,12.6c3.4,3.4,8.7,4.8,10.1,9.2
	c1.4,4.4,5.8,9.2,7.2,11.1c1.5,1.9,6.3,12.6,7.8,15c1.5,2.4,6.3-0.5,8.7-2.4c2.4-1.9,6.7-2.9,7.3-6.8c0.5-3.9-5.8-6.8-7.7-8.2
	c-1.9-1.5,4.8-2.9,7.2-4.8c2.4-1.9,6.8-5.3,8.7-2.4c1.9,2.9,1,14.5,1.9,16.4c1,1.9,10.6,4.8,12.6,7.3c1.9,2.4,10.1,3.4,11.6,1.9
	c1.4-1.5,9.2,1,11.1,1.5c1.9,0.5,7.7-1,11.6-1.9c3.9-1,7.7-3.9,7.2,2.4c-0.5,6.3-1.9,15.9-6.8,20.8c-4.8,4.8-2.9,7.3-7.7,7.3
	c-2.2,0-4.3,0-5.9,0.8c-1.6-2.5-3.8-4.4-6.7-3.7c-5.8,1.5-13.1,1.5-17.9,7.3c-4.8,5.8-6.8,6.3-7.7,4.3c-1-1.9,14-10.1,12.1-12.6
	c-1.9-2.4-13.5-1.4-19.8-1.4c-6.3,0-11.6-3.9-16.4-4.8c-4.8-1-11.1,4.8-16,9.7c-4.8,4.8-8.2,1.4-12.6,1.4c-4.4,0-12.6-6.3-12.6-6.3
	s-8.2-3.4-11.6-3.4c-3.4,0-10.2-6.3-12.1-6.3s-7.3-4.3-3.4-6.3c3.9-1.9,7.7,1.9,3.9-8.7c-3.9-10.6-12.6-8.2-16-6.8
	c-3.4,1.5-27.6,1-29.5,1c-1.9,0-15.9,4.8-20.3,6.8c-4.4,1.9-12.1,4.4-14,5.3c-1.9,1-12.1-1.9-16.4,0.5c-5.8,3.2-11.1,8.2-12.6,8.2
	c-1.4,0-5.8,3.4-8.7,10.6c-2.9,7.3,0.5,13.5-4.8,16c-5.3,2.4-15,7.7-18.9,11.6c-3.9,3.9-8.7,17.4-13.5,23.7c-4.8,6.3,0,12.1,1,15.9
	c1,3.9,4.4,11.1-1,17.9c-5.3,6.8-4.8,10.1-7.2,10.6c-2.4,0.5,2.4,2.4,3.4,7.3c1,4.8-4.3,9.7,4.8,14c9.2,4.4,13.5,8.2,16,14
	c2.4,5.8,14.5,15.5,14.5,15.5s8.7,7.7,13.1,11.1c4.4,3.4,5.8,1.4,6.8-1.9c1-3.4,6.8-3.9,13.5-3.9c6.8,0,11.6,1.5,18.4,0.5
	c6.8-1,13.6-5.3,16-6.3c2.4-1,10.6-6.3,16.9-2.4c6.3,3.9,5.3,9.2,8.7,12.6c3.4,3.4,9.2,1.4,13.5-1.9c4.4-3.4,2.4-1.9,7.8,1
	c5.3,2.9,7.7,5.8,2.9,10.2c-4.8,4.3-1.9,11.1-4.8,17.9c-2.9,6.8-2.4,7.7,2.9,10.6c5.3,2.9,15,20.8,17.9,24.2c2.9,3.4-1,13,2.4,18.9
	c3.4,5.8,6.8,9.7,2.9,12.6c-3.9,2.9-10.6,8.2-11.1,17.9c-0.5,9.7,1.9,16.4,3.9,19.8c1.9,3.4,6.8,12.6,9.2,16
	c2.4,3.4,5.3,11.6,5.8,16.9c0.5,5.3-1,11.6,1.5,14.5c2.4,2.9,3.9,7.3,8.2,11.1c4.4,3.9,5.8,12.1,5.8,12.1s1.4,3.4,2,8.7
	c0.5,5.3,1,8.7,5.8,11.1c4.9,2.4,8.2,2.9,10.7,0.5c2.4-2.4,14.5-2.9,20.8-2.4c6.3,0.5,13.6-2.9,19.8-7.3
	c6.3-4.3,15.5-15.9,18.9-19.3c3.4-3.4,11.1-9.7,10.2-13.5c-1-3.9-2.9-7.7,1-9.7c3.9-1.9,13.1-5.8,13.5-8.7c0.5-2.9-3.4-15-4.3-17.4
	c-1-2.4,2.4-6.8,6.3-11.6c3.9-4.8,16-8.2,17.9-10.1c1.9-1.9,7.3-10.2,8.2-16.4c1-6.3-1.9-14,0-17.4c1.9-3.4,0.5-6.3-3.9-10.2
	c-4.4-3.9-3.4-15.5-4.8-17.4c-1.5-1.9-0.5-12.1,2.4-13.1c2.9-1,9.2-10.6,13.1-15c3.9-4.3,15-17.9,20.3-18.9c5.3-1,13.5-8.7,14-13.1
	c0.5-4.3,14.5-20.8,15-24.2c0.5-3.4,6.3-16,3.9-18.9c-2.4-2.9-21.3,4.4-23.7,5.3c-2.4,1-9.2,4.8-16.9,4.3c-7.7-0.5-4.3-6.8-4.8-9.7
	c-0.5-2.9-8.7-14-10.6-14.5c-1.9-0.5-7.7-6.3-10.2-12.1c-2.4-5.8-5.8-13.1-9.7-17.4c-3.9-4.3-6.3-14.5-10.2-21.3
	c-3.9-6.8-7.3-15.5-10.7-21.8c-0.8-1.5-1.7-3-2.6-4.4c4.5-1.1,11-3.2,11.8-0.4c1,3.4,6.3,10.6,7.3,16c1,5.3,6.3,3.4,6.8,8.2
	c0.5,4.8,5.3,16.4,7.3,17.9c1.9,1.5,10.6,9.2,12.1,12.1c1.4,2.9,3.4,6.8,4.8,14c1.5,7.3,2.9,16.9,6.8,18.4
	c3.9,1.4,16.9-2.4,19.3-3.9c2.4-1.5,18.4-9.2,24.2-9.7c5.8-0.5,6.8-4.4,14-5.8c7.3-1.4,12.6-6.8,17.4-10.6
	c4.9-3.9,10.6-13.5,12.6-16.9c1.9-3.4,6.8-5.8,4.3-9.7c-2.4-3.9-12.6-9.7-16.4-10.2c-3.9-0.5-3.4-6.8-5.8-6.8
	c-2.4,0-1.9,3.4-6.8,5.8c-4.8,2.4-9.7,7.2-13.1,6.3c-3.4-1,1-3.4-4.3-7.7c-5.3-4.3-7.2-5.3-7.2-8.7c0-3.4-10.6-9.7-11.6-14.5
	c-1-4.8,7.3-11.6,9.7-7.2c2.4,4.3,4.4,11.1,10.6,14c6.3,2.9,12.1,7.7,15,8.7c2.9,1,10.2-5.3,12.6-4.3c2.4,1,7.3,9.7,11.6,11.1
	c4.3,1.5,18.8,1.9,21.3,1.9c2.4,0,12.6,0.5,14.5-2.4c1.9-2.9,3.4-2.9,5.8-2.9c2.4,0,6.8,8.7,10.1,9.7c3.4,1,9.7,0.5,9.2,6.8
	c-0.5,6.3,2.9,11.6,6.3,12.1c3.4,0.5,11.1-7.2,11.1-7.2s0,12.1-0.5,16.4c-0.5,4.4,5.3,20.3,5.3,20.3s7.2,15,9.2,18.4
	c1.9,3.4,10.2,13.5,10.2,17.9c0,4.4,1,11.1,3.9,11.1c2.9,0,5.8-7.7,9.2-12.6c3.4-4.8,4.3-11.6,5.8-16.4c1.4-4.8,1.4-13.5,1.4-16.9
	c0-3.4,2.9-6.3,9.7-9.2c6.8-2.9,11.6-11.1,17.4-15.5c5.8-4.3,5.3-11.6,17-11.6c11.6,0,10.6,0,13.5-2.9c2.9-2.9,5.8-4.8,7.2,0.5
	c1.4,5.3,9.7,13.1,11.1,15c1.5,1.9,4.4,7.3,3.9,13.1c-0.5,5.8,0.5,12.6,2.9,12.6c2.4,0,7.2-8.2,7.2-8.2s10.6-7.2,10.2,0.5
	c-0.5,7.7,1,16,1,20.8c0,4.8,8.7,16.4,8.7,13.5c0-2.9,3.9-11.1,3.9-15.5c0-4.4,2.4-2.4,8.7,1.9c6.3,4.3,10.6,13.1,10.6,13.1
	s6.3,5.8,7.2,8.2c1,2.4,7.7-1,9.2-3.9c1.5-2.9,2.4-4.4,6.3-5.3c3.9-1,8.7-1,10.2-6.3c1.5-5.3,5.8-11.6,0-18.9
	c-5.8-7.3-8.7-12.1-13.1-15.5c-4.3-3.4-7.7-12.1-7.7-12.1s9.2-8.2,12.1-11.1c2.9-2.9,7.3-1,7.7,2.4c0.5,3.4-4.3,6.3-5.3,13.5
	c-1,7.3,5.8,9.7,7.7,7.3c1.9-2.4,6.8-8.2,6.8-9.7c0-1.4-3.4-1-3.9-6.3c-0.5-5.3,6.3-9.2,8.7-7.7c2.4,1.5,17.9-1.9,25.1-5.8
	c7.3-3.9,11.6-12.1,16-15.5c4.4-3.4,19.3-14.5,18.4-19.8c-1-5.3,0.5-12.6-3.4-19.3c-3.9-6.8-8.7-11.1-10.6-14
	c-1.9-2.9,8.2-3.4,13-7.7c4.8-4.3,0-8.2-2.4-7.7c-2.4,0.5-8.7,1.9-11.1,1.4c-2.4-0.5-3.9-2.9-7.7-5.8c-3.9-2.9,0.9-7.3,3.4-6.8
	c2.4,0.5,8.7-4.8,11.6-7.3c2.9-2.4,7.3-4.3,5.8-1.9c-1.5,2.4-4.8,11.1-1,11.6c3.9,0.5,13.1-7.2,14.5-6.8c1.4,0.5,3.9,6.8,2.4,9.7
	c-1.4,2.9-1.4,7.7,0.5,7.3c1.9-0.5,5.8-4.8,6.8-3.4c1,1.5,5.8,4.3,3.4,9.7c-2.4,5.3-7.3,7.3-1.5,10.6c5.8,3.4,7.7,0.5,12.1-1.9
	c4.3-2.4,7.2-13.1,4.8-16.4c-2.4-3.4-8.2-10.2-8.2-12.6c0-2.4,9.7-2.4,9.7-6.3s3.4-6.8,6.8-8.2c3.4-1.5,7.8-7.7,9.2-5.8
	c1.4,1.9,10.1,4.3,12.6,1.4c2.4-2.9,15-13.5,22.7-19.3c7.7-5.8,10.6-12.6,12.6-19.3c1.9-6.8,4.8-11.1,3.9-16.4
	c2.9,6.8,3.4,11.6,2.9,16.9c-0.5,5.3,0,16.4,1,17.9c1,1.5,4.8,4.8,7.3,3.9c2.4-1-1-10.6-1-12.6c0-1.9,3.4-4.8,5.3-5.3
	c1.9-0.5,0-8.7-2.4-12.1c-2.4-3.4-5.8-5.3-3.8-5.8c1.9-0.5,4.3-4.3,2.9-5.3c-1.5-1-0.5-4.3-3.9-3.4
	C1811.4,200.3,1804.8,199.1,1804.9,203.1z M1624.4,548c-1.1,1.2-4.9,1.9-7.9,2.2c-4.8,0.5-10.2-0.5-11.6-1.4c-1.4-1-5.9-4.3-2.4-8.7
	c1.9-2.4,4.8-2.4,6.8,1.5c1.9,3.9,8.2,1,13.5,3.9c1,0.5,1.6,1,1.8,1.5c0.9-1.3,3.8-2,5.9-2.9c0,0,12.1,2.9,14.5,2.9
	c2.4,0,8.2,4.4,7.7,7.3c-0.5,2.9-9.2-0.5-15,0c-5.8,0.5-8.2-1-12.1-4.4C1625,549,1624.6,548.5,1624.4,548z"/>
</svg>
